<svg xmlns="http://www.w3.org/2000/svg" viewBox="0 0 67.82 28"><defs><style>.cls-1{fill:#2292b1;}.cls-2{fill:#93d3e6;}.cls-3{fill:#fff;}.cls-4{fill:#1a171b;}.cls-5{fill:#fcda6b;}</style></defs><title>logoMibokyMini</title><g id="Capa_2" data-name="Capa 2"><g id="Capa_1-2" data-name="Capa 1"><path class="cls-1" d="M10.76,1.46A26.74,26.74,0,0,1,4,0L5,2.18S2.56,5.1,3.36,8.54a6.44,6.44,0,0,0,.28.88c.25.6.49,1.18.73,1.72,5.35,1,6.38,4,6.48,4.28v-14Z"/><path class="cls-2" d="M16.29,2.24l1-2.24A25.94,25.94,0,0,1,10.9,1.46h-.05v14l.09-.07v-.1c1.23-2.25,3.73-3.41,6-4,.26-.68.49-1.33.67-1.86a9,9,0,0,0,.48-2.67,7.13,7.13,0,0,0-1.79-4.51"/><path class="cls-2" d="M24.73,13.36c-1.85,0-1.88,0-1.92,0l0,0v2s.07.06.11.06h1.85s.11-.06.11-.06v-2s-.06-.07-.11-.07"/><path class="cls-2" d="M67.69,19.53a.13.13,0,0,0-.12-.11l-1,.09h0l-1.14.1c-.62.06-1.45.15-2.31.28l-.4.07c0-.57,0-1.14-.08-1.72,0-.38,0-.76-.08-1.14l0-.37c0-.21,0-.79,0-.81s-.05-.1-.12-.1L60.44,16a.11.11,0,0,0-.1.09h0v.1l0,.84c0,.07,0,.14,0,.22a2.23,2.23,0,0,1-.28.87,1.34,1.34,0,0,1-.57.51,1.72,1.72,0,0,1-.4.14l-.22,0-.22,0a2.19,2.19,0,0,1-.92-.14.56.56,0,0,1-.17-.09.67.67,0,0,1-.14-.09,1.09,1.09,0,0,1-.22-.26,1.8,1.8,0,0,1-.23-.82,2.9,2.9,0,0,1,0-.51c0-.18.09-.52.13-.7a.11.11,0,0,0-.1-.12l-1.89-.18a.12.12,0,0,0-.11.09h0c0,.23,0,.5,0,.7l0,.39h0a1.77,1.77,0,0,1,0,.2c0,.07,0,.16-.05.24l-.13.48a3,3,0,0,1-.34.76,1.37,1.37,0,0,1-.19.22l-.09.07-.07,0a.23.23,0,0,1-.14,0,1,1,0,0,1-.3,0,2.67,2.67,0,0,1-.36-.14,2.53,2.53,0,0,1-.36-.2,4.43,4.43,0,0,1-.71-.57,3.7,3.7,0,0,1-.33-.36l-.36-.42a8.44,8.44,0,0,0-1.93-1.65l0,0c.25-.15.49-.31.73-.47a10.79,10.79,0,0,0,1.29-1,6.22,6.22,0,0,0,1.1-1.31.1.1,0,0,0,0-.15l-1.53-1a.11.11,0,0,0-.15,0,5.11,5.11,0,0,1-.8.94,8.52,8.52,0,0,1-1,.83,12.81,12.81,0,0,1-1.18.72l-.62.32-.32.14-.16.07-.74-3.69a.11.11,0,0,0-.13-.08l-1.79.4a.11.11,0,0,0-.08.13l1,5.09L45,16.55a2.38,2.38,0,0,0-.44-.4,2.86,2.86,0,0,0-.89-.4,3.85,3.85,0,0,0-.83-.11,6.43,6.43,0,0,0-.76,0H33.84a.11.11,0,0,0-.11.11v1.56h0v0h0v.24a.11.11,0,0,0,.11.11h.48l.21.1L35,18a1.37,1.37,0,0,1,.22.2.11.11,0,0,1,0,.06.14.14,0,0,1,0,.06l0,.06,0,0a1,1,0,0,1-.12.15,3.11,3.11,0,0,1-.32.31,4.13,4.13,0,0,1-.42.31l-.48.31-.45.23a1.63,1.63,0,0,1-.37.13.53.53,0,0,1-.25,0,.43.43,0,0,1-.2-.07.83.83,0,0,1-.22-.2,1.63,1.63,0,0,1-.23-.35,5.14,5.14,0,0,1-.41-1c-.09-.29-.18-.59-.26-.89l0-.05.39-.54c.11-.16.21-.33.32-.5l0-.07.18-.3.17-.32c.19-.41.36-.84.51-1.26a12.45,12.45,0,0,0,.71-2.61,5.24,5.24,0,0,0,.05-.79,2.94,2.94,0,0,0-.17-.93,2.77,2.77,0,0,0-.1-.26l-.06-.12-.08-.13A2,2,0,0,0,33,9.12a2.1,2.1,0,0,0-.46-.32,2.76,2.76,0,0,0-.47-.2,3.57,3.57,0,0,0-.92-.12,3.53,3.53,0,0,0-.85.1,4,4,0,0,0-.81.3,3.26,3.26,0,0,0-.4.24,2.25,2.25,0,0,0-.41.34,2.34,2.34,0,0,0-.33.49,2.31,2.31,0,0,0-.19.56,2.36,2.36,0,0,0,0,.28V11a2.23,2.23,0,0,0,0,.37,5.61,5.61,0,0,0,.07.68l.08.63c.11.76.26,1.58.46,2.51L29,16.47l.12.48c-.16.18-.32.36-.49.53a6.75,6.75,0,0,1-.81.71,4.73,4.73,0,0,1-.44.29,3.84,3.84,0,0,1-.4.21,2,2,0,0,1-.4.11l-.17,0h-.16a1,1,0,0,1-.56-.24l-.12-.12a.83.83,0,0,1-.12-.16,2.71,2.71,0,0,1-.21-.37A3.59,3.59,0,0,1,25,17h0s0-.05-.05-.07l-.39-.22a.13.13,0,0,0-.13,0c-.36.26-.76.53-1.13.78l-1.15.75c-.43.28-.8.5-1.14.69l-.57.31-.62.31-.24.1-.06,0-.11-.5a4,4,0,0,0-.24-.84,2.16,2.16,0,0,0-.24-.48,2.08,2.08,0,0,0-.37-.46,2.7,2.7,0,0,0-.9-.59,3.49,3.49,0,0,0-.9-.22h0a5.72,5.72,0,0,0-1.72,0,4.08,4.08,0,0,0-.9.28,3.58,3.58,0,0,0-.84.55l-.12.12-.08-.09a3.74,3.74,0,0,0-.63-.48,3.39,3.39,0,0,0-.7-.31,4.55,4.55,0,0,0-1.37-.21h0A4.23,4.23,0,0,0,9,16.68a3.42,3.42,0,0,0-.7.32,3.26,3.26,0,0,0-.62.49,3.84,3.84,0,0,0-.82,1.23A5.67,5.67,0,0,0,6.47,20a7.59,7.59,0,0,0-.09,1.25c0,.21,0,.41,0,.61a1.49,1.49,0,0,0,0,.21l0,.16h2a.11.11,0,0,0,.11-.11.07.07,0,0,0,0-.05V22a.76.76,0,0,0,0-.15s0-.07,0-.1a1.93,1.93,0,0,0,0-.24v-.24a5.61,5.61,0,0,1,.06-.92,3.75,3.75,0,0,1,.23-.81A1.7,1.7,0,0,1,9.11,19a1.33,1.33,0,0,1,.52-.32,2.22,2.22,0,0,1,.73-.1,2.25,2.25,0,0,1,.77.11,1.39,1.39,0,0,1,.52.31,1.49,1.49,0,0,1,.35.52,3.62,3.62,0,0,1,.18.79,7.06,7.06,0,0,1,0,.92,2.33,2.33,0,0,1,0,.36v.13a.44.44,0,0,1,0,.14s0,.05,0,.08l0,.13v.1c0,.05,0,.1.14.1H14c.06,0,.15,0,.15-.13l0-.15c0-.2.05-.41.06-.61a6.74,6.74,0,0,0,0-1.27h0a1.54,1.54,0,0,1,.06-.43,1.37,1.37,0,0,1,.15-.38,1,1,0,0,1,.22-.29,1.27,1.27,0,0,1,.31-.2,2.13,2.13,0,0,1,.43-.13,3,3,0,0,1,.52-.05,2.3,2.3,0,0,1,.52,0,1.76,1.76,0,0,1,.43.13.8.8,0,0,1,.26.16.55.55,0,0,1,.14.22,4.27,4.27,0,0,1,.13.48l.07.35c0,.13.06.28.11.43a2.53,2.53,0,0,0,.31.64,1.76,1.76,0,0,0,1.19.73l.28,0a3.15,3.15,0,0,0,.43-.05l.09,0,.07,0,.12,0,.23-.08a2.66,2.66,0,0,0,.4-.17l.36-.16.31-.16.65-.35c.49-.28.88-.52,1.24-.75l.6-.4.18.23.15.16.17.16a3.05,3.05,0,0,0,1.7.74h.45a3.44,3.44,0,0,0,.45-.05,3.89,3.89,0,0,0,.82-.25,6.08,6.08,0,0,0,.68-.33c.22-.14.42-.27.61-.41s.49-.39.73-.61a6.59,6.59,0,0,0,.47,1.05,3.53,3.53,0,0,0,.46.68,3.18,3.18,0,0,0,.7.62,2.47,2.47,0,0,0,1,.36,2.69,2.69,0,0,0,.4,0,3,3,0,0,0,.59-.06,4,4,0,0,0,.8-.27,6.88,6.88,0,0,0,.66-.35l.56-.37A5.9,5.9,0,0,0,36,20.5a5.09,5.09,0,0,0,.58-.56,4.15,4.15,0,0,0,.24-.34,1.93,1.93,0,0,0,.13-.21,1.63,1.63,0,0,0,.11-.23,2.14,2.14,0,0,0,.11-1.44h1l0,0a2.75,2.75,0,0,0-.42.88,1.4,1.4,0,0,0-.06.28c0,.1,0,.21,0,.31a2,2,0,0,0,.44,1.2,2.38,2.38,0,0,0,.44.4,2.79,2.79,0,0,0,.9.4,3.87,3.87,0,0,0,.83.12h.19a5.49,5.49,0,0,0,.58,0h0a6.53,6.53,0,0,0,2.75-1,4.59,4.59,0,0,0,.61-.48,3.69,3.69,0,0,0,.56-.62,2.86,2.86,0,0,0,.42-.88l0-.11.73,3.7.09,0h0l.11,0h0l.13,0h0l.22,0h0l.21,0h0l.93-.18h.08l.11,0L47.24,17a2.67,2.67,0,0,1,.4.13,6.58,6.58,0,0,1,.84.42,6.44,6.44,0,0,1,1.45,1.26l.36.44c.15.16.29.32.44.46a7,7,0,0,0,1,.84c.2.12.4.23.61.33a5.13,5.13,0,0,0,.69.25,3.69,3.69,0,0,0,.81.12h.05a2.32,2.32,0,0,0,.9-.17l.23-.1.19-.12a2.33,2.33,0,0,0,.35-.27,3.89,3.89,0,0,0,.46-.53l.08.08a3.39,3.39,0,0,0,.84.5,3.93,3.93,0,0,0,.89.25,5.34,5.34,0,0,0,.69.05h.18l.42,0,.43-.07a4.28,4.28,0,0,0,.87-.31l.12-.07a1.21,1.21,0,0,1,0,.19v0a10.12,10.12,0,0,0-2.1,1.31,8.89,8.89,0,0,0-.93.91,6,6,0,0,0-.77,1.11l-.09.16c0,.06,0,.12-.08.19a3.17,3.17,0,0,0-.14.4,2.59,2.59,0,0,0-.07.92,2.4,2.4,0,0,0,.27.92,6.5,6.5,0,0,0,.58.73l0,0a3,3,0,0,0,1.5.66,2.56,2.56,0,0,0,.47,0,3.14,3.14,0,0,0,1.18-.23,2.85,2.85,0,0,0,.72-.41l.2-.16a1.45,1.45,0,0,0,.17-.18,3.09,3.09,0,0,0,.26-.37,3.6,3.6,0,0,0,.32-.69,5.31,5.31,0,0,0,.19-.65,10.58,10.58,0,0,0,.22-1.23c0-.38.08-.77.1-1.2q0-.42,0-.81l.72-.13c.72-.11,1.47-.18,2.17-.26l1.11-.1c.37,0,.69-.07,1.06-.09a.12.12,0,0,0,.1-.12ZM31.11,13.69c-.11.31-.23.62-.36.91-.18-.84-.31-1.55-.4-2.19l-.11-.74a3,3,0,0,1,0-.41V10.9s0,0,0-.05l.06,0,.13-.08a2.32,2.32,0,0,1,.37-.13,2.45,2.45,0,0,1,.39,0,.88.88,0,0,1,.32,0l.14.07a.21.21,0,0,1,.06.1.93.93,0,0,1,.05.29,3.4,3.4,0,0,1,0,.45,7.87,7.87,0,0,1-.24,1.07c-.05.19-.11.37-.17.55ZM43.28,18a1.93,1.93,0,0,1-.27.3,3.17,3.17,0,0,1-.36.28,4.44,4.44,0,0,1-1.86.67,2.47,2.47,0,0,1-.47,0,1.39,1.39,0,0,1-.4-.06.5.5,0,0,1-.2-.08.42.42,0,0,1,.1-.17,1.48,1.48,0,0,1,.26-.3,3.37,3.37,0,0,1,.37-.29,4.48,4.48,0,0,1,1.85-.69,3.77,3.77,0,0,1,.47,0,2.76,2.76,0,0,1,.4.06.78.78,0,0,1,.21.09A.69.69,0,0,1,43.28,18ZM60.56,23c0,.32-.05.61-.08.87a8.19,8.19,0,0,1-.17,1,3.17,3.17,0,0,1-.12.44,2.41,2.41,0,0,1-.15.33l-.06.09,0,0a1.14,1.14,0,0,1-.29.15,1,1,0,0,1-.57.07.88.88,0,0,1-.48-.22.61.61,0,0,1-.12-.15.42.42,0,0,1,0-.15.5.5,0,0,1,0-.21.93.93,0,0,1,0-.13h0v0l0,0,.05-.1a5,5,0,0,1,1.2-1.4A8.29,8.29,0,0,1,60.56,23Z"/><path class="cls-3" d="M13.87,4a2.68,2.68,0,1,0,2.68,2.68A2.68,2.68,0,0,0,13.87,4"/><path class="cls-4" d="M14.12,7.54a.77.77,0,1,1-.77.77.77.77,0,0,1,.77-.77"/><path class="cls-3" d="M7.79,9.31a2.68,2.68,0,1,1,2.69-2.68A2.68,2.68,0,0,1,7.79,9.31"/><path class="cls-4" d="M7.71,7.54a.77.77,0,1,1-.77.77.77.77,0,0,1,.77-.77"/><path class="cls-5" d="M10.91,8.09h0l.3,0a1.37,1.37,0,0,1,.63.33l-.63,1-.36.57-1-1.59a2.16,2.16,0,0,1,1.09-.35"/><path class="cls-2" d="M21.47,10.47a20.21,20.21,0,0,0-4.44.61,13.26,13.26,0,0,0-3.58,1.45A6,6,0,0,0,10.86,15l0,0v.68a.18.18,0,0,0,.17-.1h0a6.8,6.8,0,0,1,2.62-2.7,12.91,12.91,0,0,1,3.49-1.41,19.68,19.68,0,0,1,4.18-.59v6.44h.36V10.65a.19.19,0,0,0-.19-.18"/><path class="cls-1" d="M4.91,23.27C2.85,22.51,1,21.93.49,21.78L.35,11a19.45,19.45,0,0,1,5.42.71,9.58,9.58,0,0,1,3.17,1.56,4.87,4.87,0,0,1,1.74,2.26h0a.16.16,0,0,0,.09.12l.06,0v-.69a5.7,5.7,0,0,0-1.66-2A10,10,0,0,0,5.9,11.33,20.12,20.12,0,0,0,.17,10.6h0a.19.19,0,0,0-.17.18L.14,21.92a.17.17,0,0,0,.13.16,56.76,56.76,0,0,1,5.63,2,40.49,40.49,0,0,1,4.94,2.56v-.4a28,28,0,0,0-5.93-3"/><polyline class="cls-1" points="10.84 15.63 10.84 14.95 10.84 14.94 10.84 15.63 10.84 15.63"/><path class="cls-2" d="M13,25.22c-1.12.56-1.94.87-2.16,1h0v.4h0a61.61,61.61,0,0,1,8.75-3.77v-.37A65.14,65.14,0,0,0,13,25.22"/></g></g></svg>