<svg viewBox="0 0 410.22 61.05" xmlns="http://www.w3.org/2000/svg"><path d="m53.61 35.25-8.31 12.4 5.85 8.76 14.19-21.16-13.96-20.72-5.85 8.72z" fill="none"/><path d="m39.17 32.73-1.93 2.87 1.69 2.52 1.93-2.87z" fill="none"/><path d="m32.8 23.2-5.85-8.76-14.19 21.16 13.97 20.72 5.85-8.72-8.09-12z" fill="none"/><path d="m32.8 23.2 6.33-9.43-2.67-3.97h-6.4l-3.11 4.64z" fill="#fff"/><path d="m45.53 23.25-6.36 9.48 1.69 2.52-1.93 2.87 6.37 9.53 8.31-12.4z" fill="#fff"/><path d="m26.73 56.32 3.18 4.73h6.4l2.66-3.97-6.39-9.48z" fill="#fff"/><path d="m60.94 9.8h-6.39l-3.17 4.73 13.96 20.72-14.19 21.16 3.1 4.64h6.55l17.3-25.8z" fill="#fff"/><path d="m45.3 47.65-6.33 9.43 2.67 3.97h6.4l3.11-4.64z" fill="#fff"/><path d="m51.38 14.53-3.19-4.73h-6.4l-2.66 3.97 6.4 9.48z" fill="#fff"/><path d="m12.76 35.6 14.19-21.16-3.1-4.64h-6.55l-17.3 25.8 17.16 25.45h6.39l3.18-4.73z" fill="#b3b3b3"/><path d="m39.17 32.73-6.37-9.53-8.31 12.4 8.09 12 6.35-9.48-1.69-2.52z" fill="#b3b3b3"/><g fill="#fff"><path d="m23.55 61.05h6.36l-3.18-4.73z"/><path d="m54.55 9.8h-6.36l3.19 4.73z"/><path d="m38.93 38.12-6.35 9.48 6.39 9.48 6.33-9.43z"/><path d="m48.04 61.05h6.21l-3.1-4.64z"/><path d="m39.17 32.73 6.36-9.48-6.4-9.48-6.33 9.43z"/><path d="m30.06 9.8h-6.21l3.1 4.64z"/><path d="m134.64 47.15c-2.82 5.45-4.58 8-7.22 10.12a15.44 15.44 0 0 1 -10.11 3.73c-9.77 0-16.72-8.18-16.72-19.53 0-7.3 2.64-13.37 7.39-17.33a18.86 18.86 0 0 1 11.88-4.48c7.39 0 13.54 4.13 13.54 9.06a3.93 3.93 0 0 1 -4.13 3.69c-1.94 0-3.52-1.49-4.22-4l-.53-1.94c-.88-3.25-2-4.22-5.19-4.22-7.12 0-12 6.16-12 15.3 0 10.12 5.54 17.16 13.63 17.16 5 0 8.18-2.11 12.4-8.27z"/><path d="m159 61c-10.64 0-19-8.71-19-20.94s7.92-20.4 19.79-20.4c10.73 0 19 8 19 20.14s-7.92 21.2-19.79 21.2zm7.48-34.48c-2.11-2.64-4.58-4.4-8.36-4.4-6.07 0-10.2 5.19-10.2 14 0 7 1.4 13.28 4.66 18a9.52 9.52 0 0 0 7.92 4.4c6.5 0 10.37-6.16 10.37-16.36 0-6.01-1.58-12.08-4.39-15.68z"/><path d="m205.8 60.08.08-1.32c4.4-.35 5.46-2.11 5.46-7.91v-17.51c0-6.25-2.11-8.88-6.42-8.88-2.91 0-5 1.05-9.06 5v24.29c0 3.43 1.23 4.66 5.71 5v1.32h-18.57v-1.31c4.49-.35 5.46-1.76 5.46-6.95v-21.37c0-4.31-.62-5.72-3.08-5.72a7.2 7.2 0 0 0 -2.55.35v-1.49c4.83-1.41 7.74-2.38 12-4l.7.26v6.86h.09c4.57-5.19 8.62-7.12 12.67-7.12 6.68 0 10.38 4.84 10.38 13.54v19.48c0 4.75 1.05 5.72 5.36 6.16v1.32z"/><path d="m250 54.28c-2.9 4.57-6.24 6.68-10.64 6.68-5.1 0-7.74-3.78-7.74-11.17v-26.48h-4.66a.65.65 0 0 1 -.36-.61c0-.53.53-1.06 1.5-1.68 2.29-1.32 5.19-4.57 8.53-9.41.53-.79 1.23-1.58 1.76-2.46.44 0 .62.26.62 1.14v10.21h8.88v2.81h-8.89v25.16c0 5.63 1.32 7.92 4.57 7.92 1.94 0 3.34-.79 5.28-3.08z"/><path d="m287.16 46.27c-3.43 9.59-9.59 14.73-18.38 14.73-10.38 0-16.72-7.83-16.72-20 0-12.4 7.13-21.37 18.21-21.37 5.46 0 9.41 2.11 12.23 6.07 1.76 2.46 2.64 5.27 3 10h-27.1c.44 6.69.88 10.12 4 14.34a11.62 11.62 0 0 0 9.77 4.84c5.89 0 9.23-2.73 13.54-9.24zm-10.64-13.37c-1-7.13-2.82-10.12-8.62-10.12-4.93 0-8.36 3.52-9.33 10.12z"/><path d="m311.79 39.15c5.63 3.43 7.74 5.8 7.74 10.82 0 5.89-5.63 11-12.32 11a20.87 20.87 0 0 1 -6.42-.79 11.57 11.57 0 0 0 -4-.79 2 2 0 0 0 -2.12 1h-1.14v-13.77h1.41c1.81 8.54 5.06 12.38 11.13 12.38 4.49 0 7.3-2.91 7.3-6.51 0-2.73-1.76-5-4.66-6.6l-4.71-2.61c-7.3-4.05-10.56-8.27-10.56-12.76 0-6.94 4.93-10.82 12.14-10.82a13.26 13.26 0 0 1 5.9 1 6.6 6.6 0 0 0 2.46.71c.35 0 .7-.09 1.41-.88h1l.44 12h-1.32c-2-7.92-4.66-10.82-9.94-10.82-3.78 0-6.59 1.85-6.59 6a7.56 7.56 0 0 0 3.78 6z"/><path d="m347 54.28c-2.9 4.57-6.24 6.68-10.64 6.68-5.1 0-7.74-3.78-7.74-11.17v-26.48h-4.66a.65.65 0 0 1 -.36-.61c0-.53.53-1.06 1.5-1.68 2.29-1.32 5.19-4.57 8.53-9.41.53-.79 1.23-1.58 1.76-2.46.44 0 .62.26.62 1.14v10.21h8.88v2.81h-8.89v25.16c0 5.63 1.32 7.92 4.57 7.92 1.94 0 3.34-.79 5.28-3.08z"/><path d="m348.29 60.08v-1.32c6.07-.35 6.95-1.14 6.95-7.83v-19.93c0-4.13-.7-5.54-2.9-5.54a13.15 13.15 0 0 0 -3.7.44v-1.4l13.64-4.84.35.35v30.84c0 6.5.7 7.47 6.51 7.91v1.32zm9.85-51.08a4.37 4.37 0 0 1 -4.4-4.48 4.51 4.51 0 0 1 4.49-4.52 4.45 4.45 0 0 1 4.49 4.49 4.42 4.42 0 0 1 -4.58 4.51z"/><path d="m410.22 56.74c-2.64 3.34-4.93 4.22-7.92 4.22-3.25 0-5.19-1.76-5.63-6.42h-.09c-4.66 5.28-9 6.42-12.75 6.42-5.46 0-9.24-3.34-9.24-9.15 0-4.57 2.73-8 6.16-10.29 2.64-1.76 5.89-3.43 15.83-7.12v-4.75c0-5.46-2.9-7.92-6.86-7.92-3.52 0-6.16 1.93-6.16 4.31 0 1.58.53 1.85.53 3.69a4 4 0 0 1 -4 3.61 4 4 0 0 1 -3.78-4.05c0-2.28 1.41-5.1 4.49-7a19.27 19.27 0 0 1 10.12-2.64c4.92 0 8.26 1.4 10.38 4s2.46 4.39 2.46 9.76v16.8c0 4 1.14 5.81 2.72 5.81 1.41 0 2.29-.44 3.79-1.67zm-13.64-20.23c-5.45 1.93-9.06 3.78-11.26 5.8a8.56 8.56 0 0 0 -3 6.78c0 4.66 2.64 6.77 6.07 6.77a9.46 9.46 0 0 0 5.1-1.41c2.56-1.76 3.08-3 3.08-5.54z"/></g></svg>