<svg xmlns="http://www.w3.org/2000/svg" viewBox="0 0 278.7 69.87"><defs><style>.cls-1{fill:#fff;}</style></defs><title>logo-negative</title><g id="Capa_2" data-name="Capa 2"><g id="Capa_1-2" data-name="Capa 1"><polygon class="cls-1" points="60.53 17.39 30.27 0 31.34 6.65 60.53 32.61 60.53 17.39"/><polygon class="cls-1" points="30.27 69.87 60.53 52.4 60.53 49.23 0 24.76 0 52.4 30.27 69.87"/><path class="cls-1" d="M99.71,36.56a6.88,6.88,0,0,1,1.87,5.25,7,7,0,0,1-2.76,6.08c-1.84,1.33-4.41,2-7.69,2H83.18V20.78h6.5c3.37,0,6,.6,7.8,1.82A6.1,6.1,0,0,1,100.22,28a6.3,6.3,0,0,1-1.47,4.34,6.49,6.49,0,0,1-3.88,2.08A8.25,8.25,0,0,1,99.71,36.56Zm-14-13.66V33.57h5.86A6.47,6.47,0,0,0,96,32.14a4.93,4.93,0,0,0,1.66-3.93,4.48,4.48,0,0,0-1.94-4.08,10.83,10.83,0,0,0-5.75-1.23ZM98.94,41.81A5.59,5.59,0,0,0,97,37.14a8,8,0,0,0-5.12-1.53H85.73V47.76h5.4Q98.95,47.76,98.94,41.81Z"/><path class="cls-1" d="M136,49.6l-2.12.28-.13-4q-2.64,4.43-7.27,4.42a6,6,0,0,1-4.65-1.76,7.16,7.16,0,0,1-1.64-5V28l2.47-.33V43.3a5.6,5.6,0,0,0,1.08,3.8,4.2,4.2,0,0,0,3.3,1.21q3.86,0,6.5-4.54V27.92l2.46-.26Z"/><path class="cls-1" d="M160.73,39.73H145.9c.14,2.89.83,5,2.06,6.44a6.18,6.18,0,0,0,4.87,2.1,8.39,8.39,0,0,0,3.08-.53,13.65,13.65,0,0,0,2.91-1.68L160,47.63a12.53,12.53,0,0,1-3.4,2,10.41,10.41,0,0,1-3.87.68,8.53,8.53,0,0,1-6.93-3q-2.51-3-2.5-8.38a16.32,16.32,0,0,1,1.08-6.18,9.3,9.3,0,0,1,3.1-4.12,7.78,7.78,0,0,1,4.7-1.47,7.68,7.68,0,0,1,6.46,2.87q2.2,2.86,2.21,7.88A17,17,0,0,1,160.73,39.73Zm-2.33-2.55a9.63,9.63,0,0,0-1.56-5.84,5.34,5.34,0,0,0-4.61-2.11,5.43,5.43,0,0,0-4.46,2.13c-1.13,1.41-1.76,3.57-1.87,6.46h12.5Z"/><path class="cls-1" d="M194.71,22.92q2.78,2.14,2.78,6.57,0,4.67-2.91,6.86t-8,2.19h-4.16V49.88H179.9V20.78h6.84C190.2,20.78,192.85,21.49,194.71,22.92Zm-2,12c1.42-1,2.12-2.83,2.12-5.35s-.68-4.09-2.06-5.12a10,10,0,0,0-6.05-1.55h-4.25v13.6h4.16A10.08,10.08,0,0,0,192.69,34.88Z"/><path class="cls-1" d="M229.6,47.46A2.72,2.72,0,0,0,231,48.61l-.55,1.74a4.41,4.41,0,0,1-2.36-1.14,4.64,4.64,0,0,1-1.09-2.6,7.55,7.55,0,0,1-6.92,3.74,6.92,6.92,0,0,1-5-1.8,6.47,6.47,0,0,1-1.85-4.83,6.3,6.3,0,0,1,2.45-5.31,11,11,0,0,1,6.78-1.87h4.24V34.37a5.38,5.38,0,0,0-1.18-3.88,5.41,5.41,0,0,0-4-1.22,18,18,0,0,0-6,1.28l-.64-1.87a19.06,19.06,0,0,1,7-1.49q7.27,0,7.27,7.06V45A5.17,5.17,0,0,0,229.6,47.46Zm-2.92-3V38.33h-3.86a8.72,8.72,0,0,0-5.19,1.31,4.6,4.6,0,0,0-1.78,4,4.76,4.76,0,0,0,1.23,3.52,4.66,4.66,0,0,0,3.44,1.23A6.74,6.74,0,0,0,226.68,44.45Z"/><path class="cls-1" d="M252.54,29a7.23,7.23,0,0,1,1.6,5V49.57l-2.47.31V34.33a5.91,5.91,0,0,0-1.06-3.91,3.93,3.93,0,0,0-3.14-1.23,6.32,6.32,0,0,0-3.77,1.17,12.81,12.81,0,0,0-3.12,3.42V49.41l-2.46.47V28.18l2.12-.52.26,3.78a10.3,10.3,0,0,1,3.23-3.12,8,8,0,0,1,4.2-1.13A5.86,5.86,0,0,1,252.54,29Z"/><path class="cls-1" d="M278.61,39.73H263.78c.14,2.89.83,5,2.06,6.44a6.19,6.19,0,0,0,4.87,2.1,8.39,8.39,0,0,0,3.08-.53,13.65,13.65,0,0,0,2.91-1.68l1.15,1.57a12.53,12.53,0,0,1-3.4,2,10.41,10.41,0,0,1-3.87.68,8.51,8.51,0,0,1-6.92-3c-1.68-2-2.51-4.81-2.51-8.38a16.32,16.32,0,0,1,1.08-6.18,9.3,9.3,0,0,1,3.1-4.12,7.8,7.8,0,0,1,4.7-1.47,7.66,7.66,0,0,1,6.46,2.87q2.2,2.86,2.21,7.88A17,17,0,0,1,278.61,39.73Zm-2.33-2.55a9.7,9.7,0,0,0-1.55-5.84,5.37,5.37,0,0,0-4.61-2.11,5.45,5.45,0,0,0-4.47,2.13c-1.13,1.41-1.75,3.57-1.87,6.46h12.5Z"/><path class="cls-1" d="M110.63,49.42V18.31l-2.46.3V50.36l2.46-.29Z"/><path class="cls-1" d="M205.59,49.42V18.31l-2.47.3V50.36l2.47-.29Z"/></g></g></svg>