<?xml version="1.0" encoding="UTF-8"?>
<svg xmlns="http://www.w3.org/2000/svg" xmlns:xlink="http://www.w3.org/1999/xlink" version="1.1" id="Raster" x="0px" y="0px" viewBox="0 0 585.6 157.2" style="enable-background:new 0 0 585.6 157.2;" xml:space="preserve">
<style type="text/css">
	.st0{fill:#FECA27;}
	.st1{fill:#202867;}
</style>
<g id="_x33_5_x2C_11_4_">
	<path class="st0" d="M548.4,37.2L548.4,37.2c6.2,6.3,6.4,16,6.4,22.8h1.6c0-6.8,0.2-16.6,6.4-22.8l0,0c6.3-6.2,16-6.4,22.8-6.4   v-1.6c-6.8,0-16.6-0.2-22.8-6.4l0,0c-6.2-6.3-6.4-16.1-6.4-22.8h-1.6c0,6.8-0.2,16.6-6.4,22.8l0,0c-6.3,6.2-16,6.4-22.8,6.4v1.6   C532.3,30.8,542.1,31,548.4,37.2z"></path>
</g>
<g>
	<path class="st1" d="M3,64.2c2-4.3,4.8-7.7,8.5-10.2s7.9-3.8,12.8-3.8c7.3,0,13,2.7,17.1,8c4,5.4,6.1,12.4,6.1,20.9v3.8h-34   c0.3,3.9,1.6,7.1,3.8,9.5c2.2,2.5,5.3,3.7,9.3,3.7c2.1,0,4.2-0.5,6.3-1.4c2.1-0.9,3.9-2.2,5.4-3.9l6.2,8.1c-2.4,2.6-5.3,4.6-8.7,6   c-3.4,1.4-7,2.1-10.7,2.1c-5,0-9.4-1.2-13.2-3.5c-3.8-2.4-6.8-5.7-8.8-10C1,89.2,0,84.2,0,78.6C0,73.4,1,68.6,3,64.2z M16.3,64.9   c-1.7,2.5-2.6,5.5-2.7,8.8h20.9c-0.2-3.4-1-6.3-2.7-8.8c-1.6-2.5-4.3-3.8-7.8-3.8S18,62.4,16.3,64.9z"></path>
	<path class="st1" d="M81.7,70.1c0-5.3-2.4-7.9-7.1-7.9c-2.1,0-4,0.7-5.7,2c-1.7,1.3-3.1,2.9-4.2,4.8v36.8H51.4V51.6h13.4v7.1   c1.6-2.3,3.8-4.3,6.7-5.9s6-2.5,9.2-2.5c4.9,0,8.5,1.3,10.9,3.9c2.4,2.6,3.6,6.2,3.6,10.9v40.6H81.8V70.1H81.7z"></path>
	<path class="st1" d="M108,103.4c-2.2-2.4-3.4-6-3.4-10.7V63.3h-7.1V51.6h7.1V36.8H118v14.8h9v11.8h-9v26.2c0,1.8,0.3,3.2,1,4.1   c0.7,1,1.6,1.5,2.9,1.5c0.8,0,1.6-0.1,2.4-0.4c0.7-0.3,1.3-0.7,1.7-1.1l2.8,10.3c-2.3,2.1-5.8,3.1-10.4,3.1   C113.8,107,110.3,105.8,108,103.4z"></path>
	<path class="st1" d="M131.2,51.6h13.4v7.5c1.6-2.5,3.7-4.6,6.4-6.3c2.7-1.7,5.5-2.5,8.3-2.5v13.1c-0.9-0.2-2-0.3-3.2-0.3   c-2.1,0-4.3,0.6-6.5,1.9c-2.2,1.3-3.9,2.8-5,4.6v36.1h-13.4V51.6z"></path>
	<path class="st1" d="M190,100.3c-1.5,2.1-3.5,3.7-6.1,4.9s-5.3,1.8-8.1,1.8c-2.9,0-5.6-0.7-8.2-2.1c-2.5-1.4-4.6-3.5-6.2-6.2   c-1.6-2.7-2.4-5.9-2.4-9.6c0-5.6,1.6-9.9,4.9-12.9c3.2-3,7.2-4.5,11.8-4.5c2.9,0,5.7,0.5,8.2,1.6c2.6,1.1,4.6,2.7,6,4.8v-7.2   c0-2.9-0.9-5.2-2.6-6.9c-1.8-1.7-4.2-2.5-7.3-2.5c-4.9,0-9.4,1.9-13.3,5.8l-5-9.2c2.7-2.6,5.9-4.6,9.6-5.9c3.7-1.3,7.5-2,11.2-2   c6.3,0,11.4,1.5,15.3,4.6c3.8,3.1,5.8,7.9,5.8,14.5v36.3h-13.5v-5.3H190z M190,85.9c-0.9-1.6-2.2-2.9-3.8-3.9   c-1.6-0.9-3.4-1.4-5.3-1.4c-2.5,0-4.6,0.8-6.1,2.4c-1.5,1.6-2.3,3.7-2.3,6.3c0,2.6,0.8,4.7,2.3,6.3c1.5,1.6,3.6,2.4,6.1,2.4   c1.9,0,3.6-0.4,5.3-1.3c1.6-0.9,2.9-2.2,3.8-3.8V85.9z"></path>
	<path class="st1" d="M241.5,98.8c-1.6,2.6-3.7,4.6-6.1,6s-4.9,2.1-7.6,2.1c-6.1,0-11-2.5-14.6-7.6c-3.6-5-5.4-12-5.4-20.8   c0-5.7,0.8-10.8,2.5-15.1c1.6-4.3,4-7.6,7-9.9s6.5-3.5,10.6-3.5c2.7,0,5.2,0.7,7.6,2.1s4.4,3.4,6,6.1V31h13.4v74.7h-13.4V98.8z    M241.5,68.5c-0.9-1.8-2.2-3.3-4-4.5c-1.8-1.2-3.6-1.8-5.4-1.8c-3.3,0-5.8,1.5-7.7,4.6c-1.8,3.1-2.7,7.1-2.7,12   c0,4.9,0.9,8.8,2.7,11.9c1.8,3.1,4.4,4.6,7.7,4.6c1.8,0,3.6-0.6,5.4-1.8c1.8-1.2,3.1-2.7,4-4.5V68.5z"></path>
	<path class="st1" d="M289.4,100.3c-1.5,2.1-3.5,3.7-6.1,4.9s-5.3,1.8-8.1,1.8c-2.9,0-5.6-0.7-8.2-2.1c-2.5-1.4-4.6-3.5-6.2-6.2   s-2.4-5.9-2.4-9.6c0-5.6,1.6-9.9,4.9-12.9c3.2-3,7.2-4.5,11.8-4.5c2.9,0,5.7,0.5,8.2,1.6c2.6,1.1,4.6,2.7,6,4.8v-7.2   c0-2.9-0.9-5.2-2.6-6.9c-1.8-1.7-4.2-2.5-7.3-2.5c-4.9,0-9.4,1.9-13.3,5.8l-5-9.2c2.7-2.6,5.9-4.6,9.6-5.9s7.5-2,11.2-2   c6.3,0,11.4,1.5,15.3,4.6c3.8,3.1,5.8,7.9,5.8,14.5v36.3h-13.5v-5.3H289.4z M289.4,85.9c-0.9-1.6-2.2-2.9-3.8-3.9   c-1.6-0.9-3.4-1.4-5.3-1.4c-2.5,0-4.6,0.8-6.1,2.4c-1.5,1.6-2.3,3.7-2.3,6.3c0,2.6,0.8,4.7,2.3,6.3c1.5,1.6,3.6,2.4,6.1,2.4   c1.9,0,3.6-0.4,5.3-1.3c1.6-0.9,2.9-2.2,3.8-3.8V85.9z"></path>
	<path class="st1" d="M311.6,89.9c1.7,1.9,4,3.4,6.7,4.7c2.8,1.3,5.5,1.9,8.2,1.9c2.5,0,4.5-0.5,5.9-1.5s2.1-2.4,2.1-4.1   c0-1.6-0.8-2.9-2.3-3.9s-3.9-2-7-3c-3.7-1.2-6.6-2.3-8.9-3.4c-2.3-1.1-4.3-2.8-6-5c-1.7-2.3-2.6-5.3-2.6-9c0-3,0.8-5.7,2.4-8.2   s3.8-4.4,6.8-5.9c2.9-1.5,6.5-2.2,10.6-2.2c7.3,0,13.6,2.3,18.8,6.9l-5.4,9c-1.4-1.6-3.3-2.9-5.7-4c-2.4-1.1-4.9-1.6-7.5-1.6   c-2.2,0-3.9,0.5-5.2,1.4c-1.3,0.9-2,2.2-2,3.7s0.7,2.7,2.2,3.7c1.5,0.9,3.6,1.9,6.5,2.8c3.7,1.1,6.7,2.3,9.1,3.5s4.5,3,6.3,5.4   c1.8,2.4,2.7,5.5,2.7,9.3c0,4.9-1.9,9-5.6,12.1c-3.7,3.1-8.7,4.7-15,4.7c-4.3,0-8.3-0.7-11.9-2s-6.6-3.2-8.9-5.7L311.6,89.9z"></path>
	<path class="st1" d="M353.1,92.2c1.8-1.7,3.8-2.6,6.1-2.6c2.3,0,4.3,0.9,6,2.6s2.6,3.8,2.6,6.2c0,2.3-0.8,4.3-2.5,6   s-3.7,2.6-6.1,2.6s-4.4-0.9-6.2-2.6c-1.7-1.7-2.6-3.7-2.6-6C350.4,96,351.3,94,353.1,92.2z"></path>
	<path class="st1" d="M371.1,64c2.1-4.3,5-7.7,8.7-10.1c3.8-2.4,8.1-3.6,12.9-3.6c4,0,7.4,0.7,10.2,2c2.9,1.3,5.2,3.1,7,5.3   l-6.7,9.3c-2.5-3.1-5.6-4.7-9.1-4.7c-3.8,0-6.8,1.5-9,4.6c-2.2,3.1-3.3,7-3.3,11.8c0,4.9,1.1,8.8,3.3,11.9c2.2,3.1,5.2,4.6,9,4.6   c3.5,0,6.5-1.6,9.1-4.7l6.7,9.3c-1.8,2.2-4.1,3.9-7,5.3c-2.9,1.3-6.3,2-10.2,2c-4.9,0-9.2-1.2-12.9-3.6c-3.8-2.4-6.7-5.8-8.7-10.1   C369,89,368,84.1,368,78.6C368,73.1,369,68.3,371.1,64z"></path>
	<path class="st1" d="M421.3,103.2c-3.7-2.6-6.4-6-8.3-10.4c-1.9-4.3-2.9-9.1-2.9-14.2c0-5.1,1-9.9,2.9-14.2   c1.9-4.3,4.7-7.7,8.4-10.3c3.7-2.6,8.1-3.9,13.2-3.9c5.2,0,9.6,1.3,13.3,3.9c3.7,2.6,6.5,6,8.4,10.3s2.9,9,2.9,14.2s-1,10-2.9,14.3   s-4.7,7.7-8.4,10.3c-3.7,2.6-8.1,3.9-13.3,3.9C429.4,107,425,105.7,421.3,103.2z M442.5,90.4c1.8-3.1,2.7-7.1,2.7-11.9   s-0.9-8.7-2.7-11.8c-1.8-3.1-4.4-4.6-7.9-4.6c-3.4,0-6,1.6-7.8,4.7c-1.8,3.1-2.6,7.1-2.6,11.8c0,4.8,0.9,8.7,2.6,11.9   c1.8,3.1,4.3,4.7,7.8,4.7C438,95.1,440.7,93.6,442.5,90.4z"></path>
	<path class="st1" d="M521.1,69.3c0-4.8-2.1-7.2-6.2-7.2c-1.9,0-3.7,0.7-5.4,2c-1.6,1.3-2.9,2.9-3.9,4.7v36.8h-13.4V69.3   c0-4.8-2.1-7.2-6.2-7.2c-1.9,0-3.6,0.7-5.3,2c-1.7,1.3-3,2.9-4,4.7v36.8h-13.4v-54h13.4v7.1c1.2-2.1,3.2-4,6.1-5.8   c2.9-1.8,5.9-2.6,9.1-2.6c3.4,0,6.3,0.8,8.6,2.4s3.8,3.9,4.5,7c1.3-2.5,3.5-4.7,6.5-6.6s6.1-2.8,9.3-2.8c4.3,0,7.7,1.2,10.1,3.5   c2.4,2.4,3.6,6,3.6,10.8v41.1h-13.4L521.1,69.3L521.1,69.3z"></path>
</g>
</svg>
