<?xml version="1.0" encoding="UTF-8"?>
<svg id="Capa_1" data-name="Capa 1" xmlns="http://www.w3.org/2000/svg" viewBox="0 0 240 240">
  <defs>
    <style>
      .cls-1 {
        stroke-dasharray: 0 0 4.93 4.93;
      }

      .cls-1, .cls-2 {
        fill: none;
        stroke: #fff;
        stroke-miterlimit: 10;
      }

      .cls-2 {
        stroke-dasharray: 0 0 4.96 4.96;
      }

      .cls-3 {
        opacity: .5;
      }
    </style>
  </defs>
  <g class="cls-3">
    <g>
      <circle class="cls-1" cx=".17" cy="120.33" r="42.35" transform="translate(-85.04 35.36) rotate(-45)"/>
      <circle class="cls-2" cx=".17" cy="120.33" r="77.4"/>
      <circle class="cls-1" cx="120" cy="120.33" r="42.35" transform="translate(-49.94 120.1) rotate(-45)"/>
      <circle class="cls-2" cx="120" cy="120.33" r="77.4"/>
      <circle class="cls-1" cx="239.83" cy="120.33" r="42.35" transform="translate(-27.44 144.06) rotate(-31.72)"/>
      <circle class="cls-2" cx="239.83" cy="120.33" r="77.4"/>
    </g>
    <g>
      <circle class="cls-1" cx=".17" cy="240.09" r="42.35" transform="translate(-229.67 170.68) rotate(-73.15)"/>
      <circle class="cls-2" cx=".17" cy="240.09" r="77.4" transform="translate(-228.21 166) rotate(-71.99)"/>
      <circle class="cls-1" cx="120" cy="240.09" r="42.35" transform="translate(-143.7 290.17) rotate(-74.2)"/>
      <circle class="cls-2" cx="120" cy="240.09" r="77.4" transform="translate(-147.74 259.08) rotate(-67.5)"/>
      <circle class="cls-1" cx="239.83" cy="240.09" r="42.35" transform="translate(-66.11 386.93) rotate(-70.67)"/>
      <circle class="cls-2" cx="239.83" cy="240.09" r="77.4" transform="translate(-66.11 386.93) rotate(-70.67)"/>
    </g>
    <g>
      <circle class="cls-1" cx=".17" cy="-.09" r="42.35"/>
      <circle class="cls-2" cx=".17" cy="-.09" r="77.4"/>
      <circle class="cls-1" cx="120" cy="-.09" r="42.35"/>
      <circle class="cls-2" cx="120" cy="-.09" r="77.4"/>
      <circle class="cls-1" cx="239.83" cy="-.09" r="42.35"/>
      <circle class="cls-2" cx="239.83" cy="-.09" r="77.4"/>
    </g>
  </g>
</svg>