<svg viewBox="0 0 395.48 223.58" xmlns="http://www.w3.org/2000/svg"><path d="m252.41 219.24c-2.6-1.4-4.65-3.34-6.14-5.83-1.49-2.48-2.24-5.29-2.24-8.42s.75-5.94 2.24-8.42 3.54-4.43 6.14-5.83 5.53-2.1 8.78-2.1c2.74 0 5.22.48 7.43 1.45 2.21.96 4.07 2.35 5.58 4.16l-4.7 4.34c-2.14-2.47-4.79-3.7-7.95-3.7-1.96 0-3.7.43-5.24 1.29s-2.73 2.05-3.59 3.59-1.29 3.28-1.29 5.24.43 3.7 1.29 5.24 2.06 2.73 3.59 3.59c1.54.86 3.28 1.29 5.24 1.29 3.16 0 5.81-1.25 7.95-3.75l4.7 4.34c-1.51 1.84-3.37 3.24-5.6 4.2s-4.71 1.45-7.45 1.45c-3.22 0-6.14-.7-8.74-2.1z" fill="#fff"/></svg>