<?xml version="1.0" encoding="UTF-8"?>
<svg id="Capa_1" data-name="Capa 1" xmlns="http://www.w3.org/2000/svg" viewBox="0 0 276.54 212.54">
  <defs>
    <style>
      .cls-1 {
        fill: #ff9202;
      }
    </style>
  </defs>
  <path class="cls-1" d="M249.48,23.97c-.06-.06-.13-.12-.2-.18-10.07,8.39-21.41,14.01-33.76,16.75,4.34,2.09,8.3,4.95,11.82,8.53,3.5,3.53,6.31,7.47,8.38,11.76,2.73-12.44,8.36-23.82,16.75-33.87-.04-.04-.08-.09-.12-.13-.45-.51-.91-1.03-1.41-1.53-.48-.48-.97-.91-1.46-1.35"/>
  <path class="cls-1" d="M133.09,26.81c-.45-.5-.89-1.01-1.38-1.5C116.56,10.21,98.91,2.86,77.72,2.84c-21.15,.02-38.77,7.37-53.88,22.47C8.86,40.37,1.54,57.97,1.44,79.09H34.98c.06-11.56,4.21-21.66,12.34-30,8.19-8.42,18.39-12.69,30.32-12.69s22.16,4.27,30.48,12.68c3.52,3.55,6.33,7.51,8.4,11.81,2.73-12.49,8.35-23.88,16.71-33.91-.05-.05-.1-.11-.15-.16Z"/>
  <path class="cls-1" d="M116.19,177.96H39.93c1.88-3.38,4.25-6.55,7.13-9.5,1-1.02,2.05-2.01,3.12-2.91l.52-.41c.92-.75,1.83-1.47,2.77-2.12,.2-.14,.39-.25,.58-.36l.31-.19c.83-.55,1.7-1.1,2.58-1.6,.24-.13,.47-.25,.71-.36l.38-.19c.85-.43,1.69-.85,2.56-1.22,.3-.13,.61-.25,.92-.36l.35-.13c.83-.32,1.66-.63,2.52-.9,.33-.1,.67-.19,1.01-.28l.45-.12c.81-.22,1.64-.44,2.48-.61,.42-.09,.84-.16,1.27-.23l.4-.06c.79-.13,1.59-.25,2.39-.34,.64-.07,1.28-.11,1.92-.15l1.38-.15h1.87c13.9-.04,26.25-3.23,37.44-9.71,.5-.29,1.01-.58,1.53-.9l.75-.45c1.79-1.11,3.51-2.28,5.2-3.53l.26-.19c1.57-1.17,2.98-2.3,4.32-3.44h0s1.08-.95,1.08-.95c.72-.61,1.39-1.2,2.05-1.8,.02,.02,.04,.03,.06,.05,.05-.04,.1-.08,.15-.13,.51-.44,1.01-.89,1.5-1.37,15.12-14.99,22.48-32.63,22.5-53.91,0-1.1-.03-2.19-.07-3.27-.63-17.03-6.15-31.72-16.77-44.61-.77,.94-1.51,1.88-2.22,2.84-.54,.72-1.07,1.45-1.58,2.19-.77,1.11-1.5,2.23-2.19,3.36l-.15,.24c-.3,.49-.6,.97-.88,1.46-.78,1.35-1.51,2.72-2.19,4.1l-.24,.48c-.14,.26-.27,.53-.4,.8-.68,1.44-1.34,3-2.02,4.76l-.39,1c-.61,1.64-1.16,3.36-1.7,5.26l-.2,.71c-.49,1.82-.93,3.75-1.3,5.73l-.05,.24c-.4,2.19-.69,4.26-.89,6.37l-.09,.82c-.14,1.58-.22,3.16-.27,4.74-.03,.87-.06,1.74-.07,2.61l-.14,3.24c-.05,.71-.09,1.31-.16,1.91-.08,.73-.19,1.45-.31,2.17l-.04,.26c-.09,.53-.18,1.06-.28,1.58-.15,.72-.34,1.42-.52,2.11l-.1,.38c-.12,.47-.25,.93-.39,1.39-.22,.69-.47,1.35-.72,2.02l-.16,.43c-.16,.44-.32,.87-.51,1.3-.25,.59-.54,1.16-.82,1.73l-.37,.75c-.18,.37-.36,.74-.56,1.1-.34,.61-.72,1.21-1.1,1.8l-.47,.75c-.18,.3-.36,.6-.56,.89-.5,.73-1.05,1.43-1.6,2.14l-.38,.5c-.16,.22-.33,.45-.51,.66-.92,1.1-1.85,2.12-2.85,3.12-.97,.98-1.99,1.91-3.12,2.86-.19,.16-.39,.31-.6,.46l-.32,.24c-.77,.61-1.55,1.23-2.36,1.78-.28,.19-.56,.37-.85,.54l-.46,.29c-.72,.46-1.41,.9-2.12,1.29-.37,.21-.75,.39-1.13,.57l-.79,.39c-.55,.27-1.11,.55-1.67,.79-.45,.2-.92,.37-1.38,.54l-.79,.29c-.52,.19-1.04,.39-1.58,.55-.65,.21-1.31,.38-1.98,.55-.63,.17-1.27,.33-1.92,.47-.68,.15-1.37,.26-2.07,.37-.65,.11-1.32,.21-2,.29-.68,.07-1.37,.13-2.06,.18h-.02v.14l-1.27,.07-1.95-.07c-14.39,.01-27.12,3.47-38.63,10.49-.1,.06-.2,.12-.3,.18l-.75,.45c-1.56,.97-3.15,2.05-4.75,3.21l-.93,.7c-1.41,1.07-2.81,2.19-4.19,3.36-1.61,1.4-2.91,2.59-4.08,3.73-.09,.1-.2,.19-.31,.29l-.21,.19c-2.94,2.95-5.66,6.18-8.33,9.86-9.45,13-14.06,27.48-14.08,44.26,0,4.13,.29,8.12,.85,11.98H151.85l-26.18-28.64c-2.43-2.66-5.87-4.17-9.47-4.17Z"/>
  <path class="cls-1" d="M235.04,12.98l-.23-.14c-1.55-.91-3.2-1.78-5.07-2.69l-1.17-.56c-1.45-.67-2.99-1.31-4.68-1.96-.59-.22-1.19-.43-1.79-.64-1.66-.58-3.08-1.02-4.45-1.4-.62-.17-1.26-.32-1.88-.47l-.48-.11c-1.4-.34-2.8-.67-4.22-.93-.72-.13-1.46-.22-2.2-.32l-1.81-.24c-.96-.14-1.92-.27-2.91-.35-2.06-.18-4.23-.28-6.44-.3-.15,0-.3-.01-.44-.02l-.32-.02c-2.2,0-4.51,.11-7.04,.32l-.33,.02c-.62,.05-1.24,.15-1.9,.24l-2.79,.39c-.31,.05-.66,.09-1,.13-.48,.06-.95,.12-1.42,.2-.97,.19-1.97,.42-2.98,.67l-1.38,.33c-.64,.15-1.28,.3-1.91,.47l-.38,.09c-1.43,.4-2.84,.89-4.52,1.49l-.55,.19c-.46,.16-.9,.31-1.31,.47-1.4,.54-2.9,1.2-4.74,2.07l-.77,.37c-.19,.09-.38,.18-.54,.26-1.67,.83-3.32,1.75-5.11,2.83-.3,.18-.51,.3-.69,.42-1.51,.94-3.07,1.99-4.67,3.15l-1.2,.91c-1.33,1.02-2.65,2.07-3.95,3.17-1.51,1.3-3.12,2.73-4.65,4.26-.21,.21-.41,.43-.62,.64,8.31,10.25,13.7,21.53,16.27,34.05l.05-.11c.14-.3,.28-.59,.44-.88,.41-.77,.88-1.53,1.35-2.28l.27-.45c.15-.25,.3-.5,.46-.74,.54-.8,1.13-1.58,1.73-2.35l.26-.35c.15-.21,.3-.42,.47-.62,.88-1.08,1.82-2.14,2.79-3.14,.95-.98,1.98-1.95,3.07-2.88,.25-.22,.52-.42,.78-.62l.64-.49c.61-.49,1.22-.97,1.86-1.41,.31-.22,.64-.42,.97-.63l.66-.42c.6-.38,1.2-.77,1.82-1.11,.35-.19,.7-.37,1.05-.54l.89-.44c.56-.28,1.12-.56,1.7-.81,.39-.16,.77-.31,1.16-.45l.46-.17c.75-.28,1.46-.56,2.19-.78,.46-.14,.95-.27,1.43-.4l.28-.07c.74-.2,1.49-.39,2.25-.55,.55-.11,1.09-.2,1.64-.29,.92-.15,1.69-.27,2.46-.35,.63-.07,1.27-.11,1.92-.16l1.41-.14h1.87c18.19-.04,33.76-5.5,47.53-16.7-3.05-2.49-6.26-4.75-9.55-6.7Z"/>
  <path class="cls-1" d="M273.62,75.08c-.31-16.64-6.34-31-16.77-43.66-.97,1.21-1.94,2.44-2.89,3.75-9.21,12.67-13.81,26.75-14.05,42.99h-.05s-.19,60.12-.19,60.12c-.03,.43-.06,.87-.11,1.29-.08,.72-.19,1.45-.3,2.15l-.04,.26c-.09,.56-.18,1.12-.3,1.68-.15,.69-.32,1.35-.49,2.02l-.09,.34c-.14,.52-.28,1.05-.44,1.57-.18,.57-.39,1.13-.59,1.68l-.31,.83c-.16,.42-.31,.85-.49,1.26-.21,.49-.44,.97-.68,1.44l-.51,1.04c-.19,.38-.37,.75-.58,1.12-.33,.6-.71,1.19-1.08,1.77l-.41,.66c-.21,.34-.41,.68-.64,1.01-.48,.69-1.01,1.36-1.53,2.01l-.24,.32c-.24,.32-.48,.64-.74,.95-.68,.82-1.43,1.6-2.19,2.38l-.65,.69c-6.73,6.68-14.71,10.7-23.76,11.98-2.31,.33-4.37,.48-6.31,.48-11.72,.02-21.93-4.14-30.33-12.36-1.02-1-2.01-2.05-2.91-3.12l-.41-.52c-.75-.92-1.47-1.83-2.12-2.77-.14-.2-.25-.39-.36-.58l-.19-.31c-.55-.83-1.1-1.7-1.6-2.58-.13-.24-.25-.47-.36-.71l-.19-.38c-.43-.85-.85-1.69-1.22-2.56-.13-.3-.25-.61-.36-.92l-.13-.35c-.32-.83-.63-1.66-.9-2.52-.1-.33-.19-.67-.28-1.01l-.12-.45c-.22-.81-.44-1.64-.61-2.48-.09-.42-.16-.84-.23-1.27l-.06-.4c-.13-.79-.25-1.59-.34-2.39-.07-.64-.11-1.28-.15-1.92l-.15-1.38v-1.87c-.02-7.27-.92-14.12-2.68-20.61-3.96,8.15-9.44,15.68-16.5,22.68-.53,.52-1.07,1-1.62,1.48-.05,.05-.11,.09-.16,.14-.02-.02-.04-.03-.06-.05-.71,.64-1.44,1.27-2.21,1.94l-1.16,1.03h0c-1.44,1.23-2.97,2.45-4.66,3.71l-.28,.2c-1.05,.78-2.11,1.51-3.19,2.24,.08,.63,.17,1.26,.28,1.88,.19,1.03,.44,2.07,.7,3.12l.43,1.8c.14,.6,.28,1.18,.43,1.72,.42,1.5,.94,2.99,1.49,4.51l.22,.64c.15,.42,.28,.82,.44,1.19,.7,1.83,1.49,3.56,2.11,4.86l.61,1.25c.86,1.73,1.8,3.43,2.81,5.06l.45,.75c.97,1.56,2.05,3.15,3.21,4.75l.7,.93c1.07,1.41,2.19,2.81,3.36,4.19,1.4,1.61,2.59,2.91,3.73,4.08,.1,.09,.19,.2,.29,.31l.18,.21c2.95,2.94,6.18,5.66,9.86,8.33,13,9.45,27.48,14.06,44.26,14.08,21.28-.02,38.91-7.35,53.91-22.41,1.57-1.58,3.02-3.24,4.25-4.68,1.14-1.36,2.24-2.74,3.29-4.14l.28-.39c1.2-1.61,2.33-3.26,3.48-5.09l.56-.93c.99-1.65,1.92-3.34,2.76-5.01l.67-1.4c.63-1.36,1.37-2.98,2.02-4.66,.19-.51,.37-1.02,.55-1.54l.16-.48c.52-1.46,1.01-2.9,1.41-4.32,.2-.69,.36-1.39,.52-2.09l.19-.79c.36-1.45,.65-2.63,.86-3.85,.2-1.14,.35-2.29,.49-3.44l.17-1.25c.1-.7,.19-1.36,.26-2.02h.05v-.64c.21-2.35,.32-4.76,.32-7.17v-.16s-.02-.36-.02-.36c-.01-1.84-.1-3.67-.22-5.46l.28-49.4s.21-2.69,.19-4.01Z"/>
</svg>