<?xml version="1.0" encoding="UTF-8"?>
<svg id="Capa_1" data-name="Capa 1" xmlns="http://www.w3.org/2000/svg" viewBox="0 0 396 223.88">
  <defs>
    <style>
      .cls-1 {
        fill: #ff9202;
      }
    </style>
  </defs>
  <path class="cls-1" d="M315.62,172.92v16.07c0,3.52-.98,6.22-2.94,8.1-1.96,1.88-4.67,2.82-8.12,2.82-1.98,0-3.8-.27-5.45-.82s-3.05-1.32-4.21-2.32l2.11-4.01c2.12,1.72,4.59,2.57,7.42,2.57,1.96,0,3.41-.5,4.36-1.49s1.42-2.52,1.42-4.59v-1.44c-1.56,1.92-3.77,2.87-6.62,2.87s-5.24-.84-6.83-2.52c-1.59-1.68-2.39-4.1-2.39-7.27v-7.99h5.41v7.65c0,1.83,.43,3.21,1.3,4.14s2.09,1.4,3.68,1.4c1.67,0,3-.49,3.98-1.47,.98-.98,1.47-2.46,1.47-4.44v-7.29h5.41Z"/>
  <path class="cls-1" d="M332.15,191.98c.72-.28,1.4-.72,2.02-1.32l2.77,3.01c-1.69,1.94-4.17,2.91-7.42,2.91-2.03,0-3.82-.4-5.38-1.19-1.56-.79-2.76-1.89-3.61-3.29-.85-1.4-1.27-3-1.27-4.78s.42-3.35,1.25-4.76c.84-1.41,1.98-2.52,3.44-3.31,1.46-.79,3.1-1.19,4.93-1.19,1.72,0,3.28,.36,4.68,1.09s2.52,1.77,3.36,3.14c.83,1.37,1.25,2.99,1.25,4.86l-13.3,2.57c.38,.89,.97,1.56,1.79,2,.81,.45,1.81,.67,2.99,.67,.94,0,1.77-.14,2.49-.42Zm-6.47-8.71c-.82,.85-1.26,2.02-1.3,3.51l8.75-1.7c-.25-.94-.75-1.68-1.5-2.24-.76-.56-1.67-.83-2.74-.83-1.31,0-2.38,.42-3.21,1.27Z"/>
  <path class="cls-1" d="M359.93,178.33v17.98h-4.98v-2.07c-1.29,1.56-3.16,2.34-5.61,2.34-1.69,0-3.22-.38-4.59-1.14-1.37-.76-2.45-1.84-3.22-3.24-.78-1.4-1.17-3.03-1.17-4.88s.39-3.47,1.17-4.88c.78-1.4,1.85-2.48,3.22-3.24,1.37-.76,2.9-1.14,4.59-1.14,2.29,0,4.09,.72,5.38,2.17v-1.91h5.21Zm-6.42,12.62c.87-.9,1.3-2.11,1.3-3.63s-.43-2.72-1.3-3.62c-.87-.9-1.96-1.35-3.27-1.35s-2.44,.45-3.31,1.35c-.87,.9-1.3,2.11-1.3,3.62s.43,2.72,1.3,3.63c.87,.9,1.97,1.35,3.31,1.35s2.41-.45,3.27-1.35Z"/>
  <path class="cls-1" d="M372.25,178.73c1.06-.45,2.28-.67,3.66-.67v4.81c-.58-.04-.97-.07-1.17-.07-1.49,0-2.66,.42-3.51,1.25-.85,.83-1.27,2.09-1.27,3.76v8.49h-5.21v-17.98h4.98v2.37c.62-.87,1.46-1.53,2.52-1.97Z"/>
  <path class="cls-1" d="M380.75,196.02c-1.43-.37-2.56-.83-3.41-1.39l1.74-3.74c.8,.51,1.77,.93,2.91,1.25s2.25,.48,3.34,.48c2.21,0,3.31-.55,3.31-1.64,0-.51-.3-.88-.9-1.1-.6-.22-1.53-.41-2.77-.57-1.47-.22-2.68-.48-3.64-.77-.96-.29-1.79-.8-2.49-1.54-.7-.74-1.05-1.78-1.05-3.14,0-1.14,.33-2.14,.99-3.02s1.62-1.56,2.87-2.05c1.26-.49,2.75-.74,4.46-.74,1.27,0,2.53,.14,3.79,.42,1.26,.28,2.3,.66,3.12,1.15l-1.74,3.71c-1.58-.89-3.31-1.34-5.18-1.34-1.11,0-1.95,.16-2.51,.47-.56,.31-.83,.71-.83,1.2,0,.56,.3,.95,.9,1.17s1.56,.43,2.87,.63c1.47,.25,2.67,.51,3.61,.79,.94,.28,1.75,.79,2.44,1.52s1.04,1.76,1.04,3.07c0,1.11-.33,2.11-1,2.97-.67,.87-1.64,1.54-2.92,2.02s-2.8,.72-4.56,.72c-1.49,0-2.95-.18-4.38-.55Z"/>
</svg>