<svg viewBox="0 0 395.48 223.58" xmlns="http://www.w3.org/2000/svg"><path d="m130.75 220.33c-2.33-.68-4.21-1.56-5.62-2.64l2.48-5.51c1.36.99 2.97 1.79 4.83 2.39 1.87.6 3.73.9 5.6.9 2.08 0 3.61-.31 4.61-.93.99-.62 1.49-1.44 1.49-2.46 0-.75-.29-1.38-.88-1.87s-1.34-.9-2.26-1.2-2.16-.63-3.73-.99c-2.41-.57-4.38-1.14-5.92-1.72-1.54-.57-2.85-1.49-3.95-2.76-1.1-1.26-1.65-2.95-1.65-5.06 0-1.84.5-3.5 1.49-4.99s2.49-2.67 4.49-3.55c2-.87 4.45-1.31 7.34-1.31 2.02 0 3.99.24 5.92.72s3.61 1.17 5.06 2.08l-2.26 5.56c-2.92-1.66-5.84-2.48-8.76-2.48-2.05 0-3.56.33-4.54.99s-1.47 1.54-1.47 2.62.56 1.89 1.69 2.42 2.85 1.05 5.17 1.56c2.41.57 4.38 1.14 5.92 1.72 1.54.57 2.85 1.48 3.95 2.71s1.65 2.91 1.65 5.01c0 1.81-.5 3.46-1.51 4.95s-2.52 2.67-4.54 3.55c-2.02.87-4.47 1.31-7.36 1.31-2.5 0-4.92-.34-7.25-1.02z" fill="#fff"/></svg>