<svg viewBox="0 0 395.48 223.58" xmlns="http://www.w3.org/2000/svg"><path d="m189.82 219.22c-2.64-1.41-4.7-3.37-6.19-5.85s-2.24-5.28-2.24-8.38.75-5.89 2.24-8.38c1.49-2.48 3.55-4.43 6.19-5.85 2.63-1.41 5.59-2.12 8.87-2.12s6.23.71 8.85 2.12c2.62 1.42 4.68 3.36 6.19 5.85 1.51 2.48 2.26 5.28 2.26 8.38s-.75 5.89-2.26 8.38c-1.51 2.48-3.57 4.43-6.19 5.85s-5.57 2.12-8.85 2.12-6.24-.71-8.87-2.12zm13.93-5.4c1.51-.86 2.69-2.05 3.55-3.59s1.29-3.28 1.29-5.24-.43-3.7-1.29-5.24-2.04-2.73-3.55-3.59-3.19-1.29-5.06-1.29-3.55.43-5.06 1.29-2.69 2.05-3.55 3.59-1.29 3.28-1.29 5.24.43 3.7 1.29 5.24 2.04 2.73 3.55 3.59 3.19 1.29 5.06 1.29 3.55-.43 5.06-1.29z" fill="#fff"/></svg>