<?xml version="1.0" encoding="UTF-8"?>
<svg id="Capa_2" data-name="Capa 2" xmlns="http://www.w3.org/2000/svg" viewBox="0 0 297.4 347.51">
  <defs>
    <style>
      .cls-1 {
        fill: #fff;
      }
    </style>
  </defs>
  <g id="Capa_1-2" data-name="Capa 1">
    <path d="M87.42,163.77c0-1.06,0-2.12,0-3.18,0-42.52,.05-85.05-.03-127.57-.02-11.66,4.85-20.67,14.19-27.29C106.83,2.02,112.83,.1,119.31,.04c7.82-.07,7.64-.03,15.47-.01,13,.03,26.3,9.82,29.9,22.36,1.11,3.85,1.77,7.97,1.81,11.97,.2,16.47,.14,32.95,.03,49.43-.02,2.54,.7,3.23,3.23,3.21,6.12-.05,12.25-.53,18.25,1.67,8.71,3.2,15.22,8.66,18.99,17.13,1.05,2.37,2.37,3.24,4.91,3.08,3.3-.2,6.63-.13,9.95-.03,13.81,.42,23.46,7.16,29.29,19.53,.71,1.52,1.68,2.05,3.28,2.07,5.31,.08,10.7-.25,15.92,.51,15.38,2.23,27.1,16.12,27.06,31.31-.09,29.12-.09,58.25,.01,87.37,.03,8.75-1.71,17.18-5.77,24.72-4.7,8.73-10.53,16.85-15.91,25.21-3.09,4.8-6.23,9.58-9.42,14.32-3.7,5.49-7.31,11.04-11.26,16.35-5.63,7.56-13.2,12.43-22.17,15.28-5.06,1.61-10.19,2-15.47,1.99-35.28-.07-62.56,.03-97.85-.07-14.03-.04-26.53-9.32-30.86-22.87-.82-2.57-.69-5.42-1.33-8.06-.81-3.34-1.29-7.03-3.08-9.83-8.22-12.86-16.84-25.47-25.33-38.16-6.67-9.96-13.38-19.88-20.03-29.85-5.37-8.04-10.64-16.14-16.03-24.17-4.01-5.99-8.2-11.86-12.18-17.87C3.49,185.69-.43,173.75,.04,160.49c.41-11.55,9.78-23.84,20.42-27.75,12.24-4.5,23.46-1.86,34.52,3.53,7.53,3.66,13.28,9.54,19.04,15.41,4.13,4.22,8.38,8.33,12.57,12.48,.28-.13,.55-.26,.83-.4Z"/>
    <path class="cls-1" d="M108.88,119.7c13.33,150.48-35.95,55.33-54.94,42.48-5.45-5.58-11.78-8.98-19.45-10.21-6.38-1.02-13.26,4.52-12.94,10.96,.36,7.22,2.21,14.09,6.26,20.16,24.3,36.32,48.62,72.62,73.01,108.87,4.75,7.05,7.71,14.57,8.09,23.13,.29,6.35,4.73,10.64,10.92,10.65,36.53,.04,65.06,.11,101.59-.05,7.21-.03,13.11-3.49,17.19-9.51,9.89-14.58,19.64-29.24,29.5-43.84,4.82-7.13,7.67-14.96,7.71-23.53,.15-28.46,.06-56.92,.05-85.38,0-5.75-3.2-9.98-8.81-11.03-3.23-.61-6.61-.34-9.91-.65-2.49-.23-3.32,.57-3.28,3.16,.14,9.73,.07,19.47,.05,29.21,0,6.09-5.11,11.49-10.88,11.35-6.58-.16-11.05-5.59-10.98-11.2,.18-14.23,.07-28.46,.05-42.69,0-6.56-4.72-11.29-11.29-11.38-2.58-.03-5.17,.12-7.74-.04-2.35-.15-3.2,.63-3.17,3.08,.12,10.07,.01,20.14,.07,30.21,.02,3.49-1.58,6.12-4.21,8.05-3.66,2.69-7.82,3.06-11.74,.81-3.65-2.1-5.58-5.42-5.55-9.89,.1-14.06-.01-28.13,.06-42.19,.03-6.22-5.23-12.17-11.64-11.64-2.4,.2-4.83,.16-7.23,0-2.35-.17-3.19,.59-3.16,3.06,.13,9.57,.15,19.14-.03,28.71-.04,2.14-.62,4.54-1.72,6.35-3.12,5.14-7.28,5.88-12.5,4.75-4.32-.93-7.44-5.53-7.5-10.38-.07-5.74-.03-11.48-.04-17.23,0-30.37,.02-60.75-.03-91.12-.01-6.39-4.7-10.95-11.06-10.97-7.16-.03-6.31-.04-13.47,.02-1.39,.01-2.86,.16-4.14,.64-5.24,1.96-7.14,6.2-7.15,11.42-.04,28.63-.02,57.25-.02,85.88Z"/>
  </g>
</svg>