<svg viewBox="0 0 391.23 218.51" xmlns="http://www.w3.org/2000/svg"><g fill="#fff"><path d="m367.24 131.86c.51-.44 1.01-.89 1.5-1.37 15.13-14.99 22.48-32.63 22.5-53.91-.02-21.28-7.37-38.98-22.5-54.11-.49-.48-.98-.92-1.48-1.37-.06-.05-.12-.1-.17-.15-10.07 8.39-21.42 14.01-33.78 16.76 4.34 2.09 8.31 4.95 11.85 8.53 8.35 8.44 12.57 18.65 12.55 30.34.03 11.57-4.2 21.68-12.55 30.07-3.53 3.55-7.49 6.38-11.82 8.46 12.35 2.77 23.69 8.43 33.77 16.88.05-.04.1-.08.15-.13"/><path d="m314.91 152.78h.36c2.31-.03 4.6-.14 6.81-.33.58-.05 1.15-.13 1.71-.21l.93-.12c1.46-.17 2.91-.35 4.33-.61.95-.17 1.9-.39 2.84-.6l.53-.12c1.19-.27 2.23-.51 3.23-.78 1.31-.36 2.59-.77 3.87-1.2.79-.27 1.58-.55 2.36-.84 1.44-.55 2.87-1.13 4.28-1.78.37-.17.73-.34 1.09-.51l.47-.23c1.86-.91 3.36-1.7 4.72-2.49l.51-.31c3.31-1.96 6.46-4.16 9.43-6.57-13.78-11.29-29.35-16.8-47.55-16.84l-3.25-.14c-.66-.05-1.31-.09-1.94-.16-.72-.08-1.45-.19-2.15-.3l-.26-.04c-.56-.09-1.12-.18-1.68-.3-.69-.15-1.35-.32-2.02-.49l-.34-.09c-.52-.14-1.05-.28-1.57-.44-.57-.18-1.13-.38-1.68-.59l-.83-.31c-.42-.15-.85-.31-1.26-.49-.49-.21-.97-.44-1.44-.68l-1.04-.51c-.38-.18-.75-.37-1.12-.58-.6-.33-1.19-.71-1.77-1.08l-.66-.41c-.34-.21-.68-.41-1.01-.64-.69-.48-1.36-1.01-2.01-1.53l-.32-.24c-.32-.24-.64-.48-.95-.74-.82-.68-1.6-1.43-2.38-2.19l-.69-.65c-6.68-6.73-10.7-14.71-11.98-23.76-.33-2.31-.48-4.37-.48-6.31-.02-11.72 4.14-21.93 12.36-30.33 1-1.02 2.05-2.01 3.12-2.91l.52-.41c.92-.75 1.83-1.47 2.77-2.12.2-.14.39-.25.58-.36l.31-.19c.83-.55 1.7-1.1 2.58-1.6.24-.13.47-.25.71-.36l.38-.19c.85-.43 1.69-.85 2.56-1.22.3-.13.61-.25.92-.36l.35-.13c.83-.32 1.66-.63 2.52-.9.33-.1.67-.19 1.01-.28l.45-.12c.82-.22 1.64-.44 2.48-.61.42-.09.84-.16 1.27-.23l.4-.06c.79-.13 1.59-.25 2.39-.34.64-.07 1.28-.11 1.92-.15l1.38-.15h1.87c18.22-.04 33.79-5.51 47.55-16.7-3.07-2.51-6.28-4.77-9.56-6.72l-.25-.15c-1.5-.88-3.14-1.75-5.02-2.67l-1.22-.58c-1.45-.67-2.95-1.3-4.58-1.92-.66-.25-1.32-.48-1.99-.71-1.4-.48-2.8-.93-4.22-1.33-.72-.2-1.45-.37-2.19-.54l-1.06-.25c-1.11-.26-2.21-.52-3.34-.72-.95-.17-1.93-.29-2.91-.42l-1.75-.23c-.76-.11-1.52-.21-2.3-.28-1.86-.16-3.77-.22-5.57-.25-.26 0-.52-.02-.78-.04-.27-.02-.54-.03-.82-.03h-.3c-1.98 0-4.21.1-6.71.31h-.31c-.8.08-1.43.17-2.09.27l-2.76.37c-.83.11-1.66.21-2.47.36-1.03.19-2.07.44-3.12.7l-1.8.43c-.6.14-1.18.28-1.72.43-1.5.42-2.99.94-4.51 1.49l-.64.22c-.42.15-.82.28-1.19.44-1.83.7-3.55 1.49-4.86 2.11l-1.25.61c-1.73.86-3.43 1.8-5.06 2.81l-.75.45c-1.56.97-3.15 2.05-4.75 3.21l-.93.7c-1.41 1.07-2.81 2.19-4.19 3.36-1.62 1.4-2.91 2.59-4.08 3.73-.09.1-.2.19-.31.29l-.21.18c-2.94 2.95-5.66 6.18-8.33 9.86-9.45 13-14.06 27.48-14.08 44.26.02 21.28 7.35 38.91 22.4 53.91 1.58 1.57 3.24 3.02 4.68 4.25 1.36 1.14 2.74 2.24 4.14 3.29l.39.28c1.61 1.2 3.26 2.33 5.09 3.48l.93.56c1.65.99 3.34 1.92 5.01 2.76l1.4.67c1.36.63 2.98 1.37 4.66 2.02.51.19 1.02.37 1.54.55l.48.16c1.46.52 2.9 1.01 4.32 1.41.69.2 1.39.36 2.09.52l.79.19c1.45.36 2.63.65 3.85.86 1.14.2 2.29.35 3.44.49l1.25.17c.77.11 1.51.22 2.23.29 2.48.23 5.03.34 7.59.35h.16z"/><path d="m248.04 21.13c-.06-.06-.13-.12-.2-.18-10.07 8.39-21.41 14.01-33.76 16.75 4.34 2.09 8.3 4.95 11.82 8.53 3.5 3.53 6.31 7.47 8.38 11.76 2.73-12.44 8.36-23.82 16.75-33.87-.04-.04-.08-.09-.12-.13-.45-.51-.91-1.03-1.41-1.53-.48-.48-.97-.91-1.46-1.35"/><path d="m251.01 128.87c-8.4-10.01-14.02-21.37-16.75-33.84-2.07 4.23-4.87 8.13-8.37 11.63-8.29 8.36-18.49 12.59-30.31 12.59s-22.08-4.24-30.36-12.61c-3.46-3.48-6.23-7.38-8.28-11.61-2.74 12.49-8.38 23.86-16.8 33.85.04.05.08.09.12.14.44.5.89 1 1.37 1.48 15.09 14.98 32.72 22.27 53.88 22.28 21.19-.01 38.85-7.3 53.98-22.29.5-.49.95-1 1.4-1.51.03-.04.07-.08.1-.11"/><path d="m115.08 142.3.75-.45c1.79-1.11 3.51-2.28 5.2-3.53l.26-.19c1.57-1.17 2.98-2.3 4.32-3.44s1.08-.95 1.08-.95c1.29-1.11 2.48-2.12 3.58-3.24 1.85-1.83 3.63-3.76 5.3-5.75.16-.19.3-.38.44-.57s.28-.38.43-.56c.87-1.07 1.71-2.16 2.51-3.26.48-.66.94-1.33 1.4-2 .78-1.16 1.54-2.33 2.25-3.52.37-.62.72-1.25 1.07-1.88.73-1.31 1.43-2.63 2.07-3.97.2-.42.39-.84.58-1.27l.13-.3c.75-1.68 1.37-3.18 1.88-4.59l.37-1.1c.64-1.85 1.15-3.54 1.58-5.15l.17-.71c.5-2 .9-3.89 1.22-5.78l.04-.25c.7-4.27 1.06-8.73 1.07-13.25v-3.28h.16c.04-.65.1-1.29.16-1.92.08-.73.19-1.44.3-2.15.1-.61.2-1.22.32-1.83.15-.75.34-1.49.54-2.22.17-.64.3-1.15.45-1.65.24-.77.51-1.52.79-2.27l.14-.37c.14-.37.27-.74.43-1.11.32-.77.69-1.52 1.06-2.28l.23-.46c.14-.3.28-.59.44-.88.41-.77.88-1.53 1.35-2.28l.27-.45c.15-.25.3-.5.46-.74.54-.8 1.13-1.58 1.73-2.35l.26-.35c.15-.21.3-.42.47-.62.88-1.08 1.82-2.14 2.79-3.14.95-.98 1.98-1.95 3.07-2.88.25-.22.52-.42.78-.62l.64-.49c.61-.49 1.22-.97 1.86-1.41.31-.22.64-.42.97-.63l.66-.42c.6-.38 1.2-.77 1.82-1.11.35-.19.7-.37 1.05-.54l.89-.44c.56-.28 1.12-.56 1.7-.81.38-.16.77-.31 1.16-.45l.46-.17c.75-.28 1.46-.56 2.19-.78.46-.14.95-.27 1.43-.4l.28-.07c.74-.2 1.49-.39 2.25-.55.55-.11 1.09-.2 1.64-.29.92-.15 1.69-.27 2.46-.35.63-.07 1.27-.11 1.92-.16l1.41-.14h1.87c18.19-.04 33.76-5.5 47.53-16.7-3.05-2.49-6.26-4.75-9.55-6.7l-.23-.14c-1.55-.91-3.2-1.78-5.07-2.69l-1.17-.56c-1.45-.67-2.99-1.32-4.68-1.96-.59-.22-1.19-.43-1.79-.64-1.66-.58-3.08-1.02-4.45-1.4-.62-.17-1.26-.32-1.88-.47l-.48-.11c-1.4-.34-2.8-.67-4.22-.93-.72-.13-1.46-.22-2.2-.32l-1.81-.24c-.96-.14-1.92-.27-2.91-.35-2.06-.18-4.23-.28-6.44-.3-.15 0-.3-.01-.44-.02l-.32-.02c-2.2 0-4.51.11-7.04.32l-.33.02c-.62.05-1.24.15-1.9.24l-2.79.39c-.31.05-.66.09-1 .13-.48.06-.96.12-1.42.2-.97.19-1.97.42-2.98.67l-1.38.33c-.64.15-1.28.3-1.91.47l-.38.09c-1.43.4-2.84.89-4.52 1.49l-.55.19c-.46.16-.9.31-1.31.47-1.4.54-2.9 1.2-4.74 2.07l-.77.37c-.19.09-.38.18-.54.26-1.67.83-3.32 1.75-5.11 2.83-.3.18-.51.3-.69.42-1.51.94-3.07 1.99-4.67 3.15l-1.2.91c-1.33 1.02-2.65 2.07-3.95 3.17-1.51 1.3-3.12 2.73-4.65 4.26-1.81 1.81-3.57 3.79-5.56 6.21-.77.94-1.51 1.89-2.23 2.85-.54.72-1.07 1.45-1.58 2.19-.77 1.11-1.5 2.23-2.19 3.36l-.15.24c-.3.49-.6.97-.88 1.46-.78 1.35-1.51 2.72-2.19 4.1l-.24.48c-.14.26-.27.53-.4.8-.68 1.44-1.34 3-2.02 4.76l-.39 1c-.61 1.64-1.16 3.36-1.7 5.26l-.2.71c-.49 1.82-.93 3.75-1.3 5.73l-.05.24c-.4 2.19-.69 4.26-.89 6.37l-.09.82c-.22 2.45-.33 4.92-.34 7.35l-.14 3.24c-.05.71-.09 1.31-.16 1.91-.08.73-.19 1.45-.31 2.17l-.04.26c-.09.53-.18 1.06-.28 1.58-.15.72-.34 1.42-.52 2.11l-.1.38c-.12.47-.25.93-.39 1.39-.22.69-.47 1.35-.72 2.02l-.16.43c-.16.44-.32.87-.51 1.3-.25.59-.54 1.16-.82 1.73l-.37.75c-.18.37-.36.74-.56 1.1-.34.62-.72 1.21-1.1 1.8l-.47.75c-.18.3-.36.6-.56.89-.5.73-1.05 1.43-1.6 2.14l-.38.5c-.16.22-.33.45-.51.66-.92 1.1-1.85 2.12-2.85 3.12-.97.98-1.99 1.91-3.12 2.86-.19.16-.39.31-.6.46l-.32.24c-.77.61-1.55 1.23-2.36 1.78-.28.19-.56.37-.85.54l-.46.29c-.72.46-1.41.9-2.12 1.29-.37.21-.75.39-1.13.57l-.79.39c-.55.27-1.11.55-1.67.79-.45.2-.92.37-1.38.54l-.79.29c-.52.19-1.04.39-1.58.55-.65.21-1.31.38-1.98.55-.63.17-1.27.33-1.92.47-.68.15-1.37.26-2.07.37-.65.11-1.32.21-2 .29-.68.07-1.37.13-2.06.18h-.02v.14l-1.27.07-1.95-.07c-18.21.01-33.78 5.52-47.55 16.84 3 2.44 6.17 4.66 9.44 6.59l.24.15c1.61.94 3.16 1.76 5.04 2.67l.42.2c.32.15.64.31.96.45 1.45.67 2.92 1.27 4.41 1.84.74.28 1.49.54 2.24.79 1.3.45 2.6.87 3.93 1.23 1.06.29 2.15.54 3.24.78l.6.14c.9.21 1.79.41 2.71.58 1.54.28 3.11.47 4.69.66l.93.12c.43.06.87.12 1.31.16 2.48.22 4.97.33 7.4.33 2.61 0 5.19-.12 7.66-.35.42-.05.92-.12 1.38-.19 2.17-.24 3.92-.48 5.55-.78.88-.15 1.77-.37 2.68-.59l1.47-.34c.87-.2 1.75-.39 2.6-.63 1.32-.37 2.65-.83 3.99-1.3l.85-.29c.51-.17 1.01-.35 1.51-.54 1.46-.56 2.98-1.22 4.79-2.09.38-.17.72-.33 1.06-.5l.22-.11c1.6-.79 3.26-1.7 5.05-2.79"/><path d="m115.08 58.05c2.73-12.49 8.35-23.88 16.71-33.91-.05-.05-.1-.11-.15-.16-.45-.5-.89-1.01-1.38-1.5-15.13-15.1-32.79-22.46-53.97-22.48-21.16.02-38.78 7.37-53.88 22.47-15.07 15.14-22.4 32.85-22.41 54.12.01 21.27 7.34 38.9 22.4 53.9.46.46.95.89 1.43 1.31.07.06.13.12.2.18 10.05-8.45 21.37-14.11 33.71-16.88-4.3-2.08-8.24-4.91-11.75-8.46-8.28-8.34-12.47-18.46-12.46-30.05-.02-11.7 4.14-21.91 12.34-30.33 8.19-8.42 18.39-12.69 30.32-12.69s22.16 4.27 30.48 12.68c3.52 3.55 6.33 7.51 8.4 11.81"/><path d="m128.63 217.49c-2.33-.68-4.21-1.56-5.62-2.64 0 0 3.69-4.34 7.32-3.12 1.86.63 3.73.9 5.6.9 2.08 0 3.61-.31 4.61-.93.99-.62 1.49-1.44 1.49-2.46 0-.75-.29-1.38-.88-1.87s-1.34-.9-2.26-1.2-2.16-.63-3.73-.99c-2.41-.57-4.38-1.14-5.92-1.72-1.54-.57-2.85-1.49-3.95-2.76-1.1-1.26-1.65-2.95-1.65-5.06 0-1.84.5-3.5 1.49-4.99s2.49-2.67 4.49-3.55c2-.87 4.45-1.31 7.34-1.31 2.02 0 3.99.24 5.92.72s3.61 1.17 5.06 2.08c0 0-2.5 4.11-6.69 3.53-1.59-.22-2.79-.46-4.33-.46-2.05 0-3.56.33-4.54.99s-1.47 1.54-1.47 2.62.56 1.89 1.69 2.42 2.85 1.05 5.17 1.56c2.41.57 4.38 1.14 5.92 1.72 1.54.57 2.85 1.48 3.95 2.71s1.65 2.91 1.65 5.01c0 1.81-.5 3.46-1.51 4.95s-2.52 2.67-4.54 3.55c-2.02.87-4.47 1.31-7.36 1.31-2.5 0-4.92-.34-7.25-1.02z"/><path d="m250.29 216.41c-2.6-1.4-4.65-3.34-6.14-5.83-1.49-2.48-2.24-5.29-2.24-8.42s.75-5.94 2.24-8.42 3.54-4.43 6.14-5.83 5.53-2.1 8.78-2.1c2.74 0 5.22.48 7.43 1.45 2.21.96 4.07 2.35 5.58 4.16 0 0-5.16 3.7-6.84 2.39s-3.63-1.76-5.8-1.76c-1.96 0-3.7.43-5.24 1.29s-2.73 2.05-3.59 3.59-1.29 3.28-1.29 5.24.43 3.7 1.29 5.24 2.06 2.73 3.59 3.59c1.54.86 3.28 1.29 5.24 1.29 2.12 0 4.02-.54 5.66-1.68 2.25-1.57 6.98 2.27 6.98 2.27-1.51 1.84-3.37 3.24-5.6 4.2s-4.71 1.45-7.45 1.45c-3.22 0-6.14-.7-8.74-2.1z"/><path d="m75.75 185.81c-9.03 0-16.35 7.32-16.35 16.35s7.32 16.35 16.35 16.35 16.35-7.32 16.35-16.35-7.32-16.35-16.35-16.35zm0 26.2c-5.44 0-9.85-4.41-9.85-9.85s4.41-9.85 9.85-9.85 9.85 4.41 9.85 9.85-4.41 9.85-9.85 9.85z"/><path d="m196.57 185.81c-9.03 0-16.35 7.32-16.35 16.35s7.32 16.35 16.35 16.35 16.35-7.32 16.35-16.35-7.32-16.35-16.35-16.35zm0 26.2c-5.44 0-9.85-4.41-9.85-9.85s4.41-9.85 9.85-9.85 9.85 4.41 9.85 9.85-4.41 9.85-9.85 9.85z"/><path d="m317.42 185.81c-9.03 0-16.35 7.32-16.35 16.35s7.32 16.35 16.35 16.35 16.35-7.32 16.35-16.35-7.32-16.35-16.35-16.35zm0 26.2c-5.44 0-9.85-4.41-9.85-9.85s4.41-9.85 9.85-9.85 9.85 4.41 9.85 9.85-4.41 9.85-9.85 9.85z"/><path d="m340.71 54.83s-.03-.03-.05-.04c-2.3 1.91-4.88 3.2-7.7 3.82.99.48 1.89 1.13 2.7 1.95.8.8 1.44 1.7 1.91 2.68.62-2.84 1.91-5.43 3.82-7.73 0 0-.02-.02-.03-.03-.1-.12-.21-.23-.32-.35-.11-.11-.22-.21-.33-.31"/><path d="m314.16 55.47c-.1-.11-.2-.23-.32-.34-3.45-3.44-7.48-5.12-12.31-5.13-4.82 0-8.84 1.68-12.29 5.13-3.42 3.44-5.09 7.45-5.11 12.27h7.65c.01-2.64.96-4.94 2.81-6.84 1.87-1.92 4.2-2.9 6.92-2.9s5.06.97 6.95 2.89c.8.81 1.44 1.71 1.92 2.69.62-2.85 1.9-5.45 3.81-7.73-.01-.01-.02-.02-.03-.04z"/><path d="m310.31 89.95h-17.39c.43-.77.96-1.5 1.62-2.17.23-.23.47-.46.71-.66l.12-.09c.21-.17.42-.34.63-.48.05-.03.09-.06.13-.08l.07-.04c.19-.13.39-.25.59-.36.05-.03.11-.06.16-.08l.09-.04c.19-.1.38-.19.58-.28.07-.03.14-.06.21-.08l.08-.03c.19-.07.38-.14.58-.21.08-.02.15-.04.23-.06l.1-.03c.19-.05.37-.1.57-.14.09-.02.19-.04.29-.05h.09c.18-.04.36-.07.55-.09.14-.02.29-.03.44-.03l.31-.03h.43c2.29 0 4.38-.4 6.34-1.17h.02c.03 0 .05-.02.08-.03.36-.14.72-.3 1.07-.47.06-.03.13-.06.19-.09l.05-.02c.07-.04.15-.09.22-.12.24-.12.47-.25.7-.39.08-.05.14-.08.22-.12l.17-.1c.13-.08.26-.18.39-.26.12-.08.24-.16.36-.24.15-.1.3-.19.44-.3l.06-.04c.36-.27.68-.52.98-.78s.25-.22.25-.22c.16-.14.32-.27.47-.41 0 0 0 0 .01.01.01-.01.02-.02.03-.03.12-.1.23-.2.34-.31 3.45-3.42 5.13-7.44 5.13-12.3 0-.25 0-.5-.02-.75-.14-3.88-1.4-7.23-3.83-10.18-.17.21-.34.43-.51.65-.12.17-.24.33-.36.5-.17.25-.34.51-.5.77l-.03.06c-.07.11-.14.22-.2.33-.18.31-.34.62-.5.93l-.06.11c-.03.06-.06.12-.09.18-.16.33-.31.68-.46 1.09l-.09.23c-.14.37-.26.77-.39 1.2l-.05.16c-.11.41-.21.85-.3 1.31v.06c-.1.5-.17.97-.21 1.45l-.02.19c-.03.36-.05.72-.06 1.08 0 .2-.01.4-.01.59l-.03.74c-.01.16-.02.3-.04.44-.02.17-.04.33-.07.5v.06c-.03.12-.05.24-.07.36-.03.16-.08.32-.12.48l-.02.09c-.03.11-.06.21-.09.32-.05.16-.11.31-.17.46l-.04.1c-.04.1-.07.2-.12.3-.06.13-.12.26-.19.4l-.09.17c-.04.08-.08.17-.13.25-.08.14-.16.28-.25.41l-.11.17c-.04.07-.08.14-.13.2-.11.17-.24.33-.37.49l-.09.11c-.04.05-.07.1-.12.15-.21.25-.42.48-.65.71-.22.22-.45.44-.71.65-.04.04-.09.07-.14.11l-.07.05c-.18.14-.35.28-.54.41-.06.04-.13.08-.19.12l-.1.07c-.16.1-.32.2-.48.29-.09.05-.17.09-.26.13l-.18.09c-.13.06-.25.12-.38.18-.1.05-.21.08-.32.12l-.18.07c-.12.04-.24.09-.36.13-.15.05-.3.09-.45.13-.14.04-.29.08-.44.11s-.31.06-.47.08c-.15.02-.3.05-.46.07-.15.02-.31.03-.47.04v.03h-.29s-.45 0-.45 0c-2.73 0-5.19.56-7.46 1.66l-.27.13c-.05.03-.1.06-.15.08-.27.14-.54.29-.81.45-.06.04-.13.07-.2.11l-.17.1c-.15.09-.3.2-.45.3-.08.05-.15.1-.23.15-.14.09-.27.18-.41.27l-.21.16c-.32.24-.64.5-.96.77-.37.32-.66.59-.93.85-.02.02-.05.04-.07.07l-.05.04c-.67.67-1.29 1.41-1.9 2.25-2.16 2.97-3.21 6.27-3.21 10.09 0 .94.07 1.85.19 2.73h34.17l-5.97-6.53c-.55-.61-1.34-.95-2.16-.95z"/><path d="m337.42 52.32-.05-.03c-.35-.21-.73-.41-1.16-.61l-.27-.13c-.33-.15-.68-.3-1.07-.45-.13-.05-.27-.1-.41-.15-.38-.13-.7-.23-1.02-.32-.14-.04-.29-.07-.43-.11l-.11-.03c-.32-.08-.64-.15-.96-.21-.16-.03-.33-.05-.5-.07l-.41-.06c-.22-.03-.44-.06-.66-.08-.47-.04-.96-.06-1.47-.07-.03 0-.07 0-.1 0h-.07c-.5 0-1.03.02-1.61.07h-.07c-.14.02-.28.04-.43.06l-.64.09c-.07.01-.15.02-.23.03-.11.01-.22.03-.32.05-.22.04-.45.1-.68.15l-.31.08c-.15.03-.29.07-.43.11l-.09.02c-.33.09-.65.2-1.03.34l-.13.04c-.1.04-.2.07-.3.11-.32.12-.66.27-1.08.47l-.17.08s-.09.04-.12.06c-.38.19-.76.4-1.17.65-.07.04-.12.07-.16.1-.34.21-.7.45-1.06.72l-.27.21c-.3.23-.6.47-.9.72-.34.3-.71.62-1.06.97-.05.05-.09.1-.14.15 1.89 2.34 3.12 4.91 3.71 7.77v-.02c.04-.07.08-.14.11-.2.09-.18.2-.35.31-.52l.06-.1c.03-.06.07-.11.1-.17.12-.18.26-.36.39-.54l.06-.08s.07-.1.11-.14c.2-.25.42-.49.64-.72.22-.22.45-.44.7-.66.06-.05.12-.1.18-.14l.15-.11c.14-.11.28-.22.42-.32.07-.05.15-.1.22-.14l.15-.1c.14-.09.27-.17.41-.25.08-.04.16-.08.24-.12l.2-.1c.13-.06.26-.13.39-.18.09-.04.18-.07.27-.1l.1-.04c.17-.06.33-.13.5-.18.11-.03.22-.06.33-.09l.06-.02c.17-.04.34-.09.51-.13.12-.03.25-.05.37-.07.21-.03.39-.06.56-.08.14-.02.29-.03.44-.04l.32-.03h.43c4.15 0 7.7-1.25 10.84-3.81-.7-.57-1.43-1.08-2.18-1.53z"/><path d="m346.22 66.48c-.07-3.79-1.45-7.07-3.82-9.96-.22.27-.44.56-.66.86-2.1 2.89-3.15 6.1-3.2 9.81h-.01s-.04 13.71-.04 13.71c0 .1-.01.2-.02.29-.02.16-.04.33-.07.49v.06c-.03.13-.05.26-.08.38-.03.16-.07.31-.11.46l-.02.08c-.03.12-.06.24-.1.36-.04.13-.09.26-.14.38l-.07.19c-.04.1-.07.19-.11.29-.05.11-.1.22-.15.33l-.12.24c-.04.09-.08.17-.13.26-.08.14-.16.27-.25.4l-.09.15c-.05.08-.09.15-.15.23-.11.16-.23.31-.35.46l-.05.07c-.06.07-.11.15-.17.22-.16.19-.33.36-.5.54l-.15.16c-1.53 1.52-3.36 2.44-5.42 2.73-.53.07-1 .11-1.44.11-2.67 0-5-.95-6.92-2.82-.23-.23-.46-.47-.66-.71l-.09-.12c-.17-.21-.34-.42-.48-.63-.03-.05-.06-.09-.08-.13l-.04-.07c-.13-.19-.25-.39-.36-.59-.03-.05-.06-.11-.08-.16l-.04-.09c-.1-.19-.19-.38-.28-.58-.03-.07-.06-.14-.08-.21l-.03-.08c-.07-.19-.14-.38-.21-.58-.02-.08-.04-.15-.06-.23l-.03-.1c-.05-.19-.1-.37-.14-.57-.02-.09-.04-.19-.05-.29v-.09c-.04-.18-.07-.36-.09-.55-.02-.15-.03-.29-.04-.44l-.03-.31v-.43c0-1.66-.21-3.22-.61-4.7-.9 1.86-2.15 3.58-3.76 5.17-.12.12-.24.23-.37.34-.01.01-.02.02-.04.03 0 0 0 0-.01-.01-.16.15-.33.29-.5.44l-.27.23c-.33.28-.68.56-1.06.85l-.06.05c-.24.18-.48.35-.73.51.02.14.04.29.06.43.04.23.1.47.16.71l.1.41c.03.14.06.27.1.39.1.34.22.68.34 1.03l.05.15c.03.1.06.19.1.27.16.42.34.81.48 1.11l.14.28c.2.4.41.78.64 1.15l.1.17c.22.36.47.72.73 1.08l.16.21c.24.32.5.64.77.96.32.37.59.66.85.93.02.02.04.05.07.07l.04.05c.67.67 1.41 1.29 2.25 1.9 2.97 2.16 6.27 3.21 10.09 3.21 4.85 0 8.87-1.68 12.29-5.11.36-.36.69-.74.97-1.07.26-.31.51-.62.75-.94l.06-.09c.27-.37.53-.74.79-1.16l.13-.21c.23-.38.44-.76.63-1.14l.15-.32c.14-.31.31-.68.46-1.06.04-.12.08-.23.12-.35l.04-.11c.12-.33.23-.66.32-.99.04-.16.08-.32.12-.48l.04-.18c.08-.33.15-.6.2-.88.05-.26.08-.52.11-.79l.04-.29c.02-.16.04-.31.06-.46h.01v-.2c.04-.52.07-1.05.07-1.58v-.04s0-.08 0-.08c0-.38-.03-.75-.05-1.13l.06-11.39s.05-.61.04-.92z"/></g></svg>