<svg viewBox="0 0 397.15 178.84" xmlns="http://www.w3.org/2000/svg"><g fill="#fff"><path d="m4.67 175.42c-.74 0-1.4-.12-1.98-.37-.58-.24-1.07-.58-1.47-1.01s-.7-.94-.91-1.54c-.21-.6-.31-1.25-.31-1.97s.1-1.35.31-1.95.51-1.11.91-1.54.89-.77 1.47-1.01c.58-.25 1.24-.37 1.98-.37s1.4.12 1.98.37 1.07.58 1.47 1.01.7.94.91 1.54.31 1.25.31 1.95-.1 1.37-.31 1.97-.51 1.11-.91 1.54-.89.77-1.47 1.01-1.24.37-1.98.37zm0-1.61c.45 0 .85-.1 1.18-.29s.61-.44.82-.75c.22-.31.37-.66.47-1.05s.15-.78.15-1.19-.05-.79-.15-1.18-.26-.74-.47-1.05c-.21-.3-.49-.55-.82-.74s-.73-.29-1.18-.29-.85.1-1.18.29-.61.44-.82.74c-.21.31-.37.65-.47 1.05-.1.39-.15.79-.15 1.18s.05.8.15 1.19.26.74.47 1.05c.22.31.49.56.82.75s.73.29 1.18.29z"/><path d="m21.58 172.2c.06.6.29 1.01.68 1.25s.87.36 1.41.36c.19 0 .41-.01.65-.05.24-.03.47-.09.69-.17.21-.08.39-.21.53-.37s.2-.37.19-.64c-.01-.26-.11-.48-.29-.64s-.41-.3-.69-.4-.6-.19-.96-.26-.72-.15-1.09-.23c-.38-.08-.75-.18-1.1-.3s-.67-.28-.95-.48-.5-.46-.67-.78-.25-.71-.25-1.17c0-.5.12-.92.37-1.26s.55-.61.93-.82.79-.35 1.25-.44c.46-.08.9-.12 1.32-.12.48 0 .93.05 1.37.15s.83.27 1.18.49c.35.23.64.52.88.89.23.37.38.8.44 1.32h-2.13c-.1-.49-.32-.82-.67-.98s-.75-.25-1.21-.25c-.14 0-.31.01-.51.04-.2.02-.38.07-.55.13-.17.07-.32.16-.44.29s-.18.29-.18.49c0 .25.09.45.26.61s.4.28.68.38.6.19.96.26.73.15 1.11.23c.37.08.73.18 1.09.31.36.12.68.28.96.48s.51.46.68.77.26.69.26 1.14c0 .55-.13 1.02-.38 1.4s-.58.69-.98.93-.84.41-1.33.52-.97.16-1.45.16c-.58 0-1.12-.07-1.62-.2s-.92-.33-1.29-.6c-.36-.27-.65-.6-.86-1s-.32-.87-.33-1.42h2.04z"/><path d="m42.57 175.42c-.74 0-1.4-.12-1.98-.37-.58-.24-1.07-.58-1.47-1.01s-.7-.94-.91-1.54-.31-1.25-.31-1.97.1-1.35.31-1.95.51-1.11.91-1.54.89-.77 1.47-1.01c.58-.25 1.24-.37 1.98-.37s1.4.12 1.98.37 1.07.58 1.47 1.01.7.94.91 1.54.31 1.25.31 1.95-.1 1.37-.31 1.97-.51 1.11-.91 1.54-.89.77-1.47 1.01-1.24.37-1.98.37zm0-1.61c.45 0 .85-.1 1.18-.29s.61-.44.82-.75c.22-.31.37-.66.47-1.05s.15-.78.15-1.19-.05-.79-.15-1.18-.26-.74-.47-1.05c-.21-.3-.49-.55-.82-.74s-.73-.29-1.18-.29-.85.1-1.18.29-.61.44-.82.74c-.21.31-.37.65-.47 1.05-.1.39-.15.79-.15 1.18s.05.8.15 1.19.26.74.47 1.05.49.56.82.75.73.29 1.18.29z"/><path d="m64.19 169.02c-.08-.57-.31-1-.69-1.3-.38-.29-.85-.44-1.42-.44-.26 0-.54.05-.84.13-.3.09-.57.26-.82.5-.25.25-.46.58-.63 1.02-.17.43-.25 1-.25 1.71 0 .38.05.76.13 1.15.09.38.23.72.43 1.02s.45.54.76.72.69.28 1.13.28c.6 0 1.09-.18 1.48-.55s.63-.89.72-1.56h2.04c-.19 1.21-.65 2.13-1.37 2.77s-1.68.96-2.87.96c-.73 0-1.37-.12-1.92-.37-.55-.24-1.02-.58-1.4-1s-.67-.93-.87-1.51-.3-1.22-.3-1.9.1-1.34.29-1.95.48-1.14.86-1.58c.38-.45.86-.8 1.42-1.06.57-.26 1.23-.38 2-.38.54 0 1.05.07 1.53.21s.91.34 1.29.62.68.62.92 1.04.38.91.43 1.48h-2.04z"/><path d="m81.14 175.42c-.74 0-1.4-.12-1.98-.37-.58-.24-1.07-.58-1.47-1.01s-.7-.94-.91-1.54-.31-1.25-.31-1.97.1-1.35.31-1.95.51-1.11.91-1.54.89-.77 1.47-1.01c.58-.25 1.24-.37 1.98-.37s1.4.12 1.98.37 1.07.58 1.47 1.01.7.94.91 1.54.31 1.25.31 1.95-.1 1.37-.31 1.97-.51 1.11-.91 1.54-.89.77-1.47 1.01-1.24.37-1.98.37zm0-1.61c.45 0 .85-.1 1.18-.29s.61-.44.82-.75.37-.66.47-1.05.15-.78.15-1.19-.05-.79-.15-1.18-.26-.74-.47-1.05c-.21-.3-.49-.55-.82-.74s-.73-.29-1.18-.29-.85.1-1.18.29-.61.44-.82.74c-.21.31-.37.65-.47 1.05-.1.39-.15.79-.15 1.18s.05.8.15 1.19.26.74.47 1.05c.22.31.49.56.82.75s.73.29 1.18.29z"/><path d="m112.02 172.2c.06.6.29 1.01.68 1.25s.87.36 1.41.36c.19 0 .41-.01.65-.05.24-.03.47-.09.69-.17.21-.08.39-.21.53-.37s.2-.37.19-.64c-.01-.26-.11-.48-.29-.64-.18-.17-.41-.3-.69-.4s-.6-.19-.96-.26-.72-.15-1.09-.23c-.38-.08-.75-.18-1.1-.3s-.67-.28-.95-.48-.5-.46-.67-.78-.25-.71-.25-1.17c0-.5.12-.92.37-1.26s.55-.61.93-.82.79-.35 1.25-.44c.46-.08.9-.12 1.32-.12.48 0 .93.05 1.37.15s.83.27 1.18.49c.35.23.64.52.88.89.23.37.38.8.44 1.32h-2.13c-.1-.49-.32-.82-.67-.98s-.75-.25-1.21-.25c-.14 0-.31.01-.51.04-.2.02-.38.07-.55.13-.17.07-.32.16-.44.29s-.18.29-.18.49c0 .25.09.45.26.61s.4.28.68.38.6.19.96.26.73.15 1.11.23c.37.08.73.18 1.09.31.36.12.68.28.96.48s.51.46.68.77.26.69.26 1.14c0 .55-.13 1.02-.38 1.4s-.58.69-.98.93-.84.41-1.33.52-.97.16-1.45.16c-.58 0-1.12-.07-1.62-.2s-.92-.33-1.29-.6c-.36-.27-.65-.6-.86-1s-.32-.87-.33-1.42h2.04z"/><path d="m133.02 175.42c-.74 0-1.4-.12-1.98-.37-.58-.24-1.07-.58-1.47-1.01s-.7-.94-.91-1.54-.31-1.25-.31-1.97.1-1.35.31-1.95.51-1.11.91-1.54.89-.77 1.47-1.01c.58-.25 1.24-.37 1.98-.37s1.4.12 1.98.37 1.07.58 1.47 1.01.7.94.91 1.54.31 1.25.31 1.95-.1 1.37-.31 1.97-.51 1.11-.91 1.54-.89.77-1.47 1.01-1.24.37-1.98.37zm0-1.61c.45 0 .85-.1 1.18-.29s.61-.44.82-.75.37-.66.47-1.05.15-.78.15-1.19-.05-.79-.15-1.18-.26-.74-.47-1.05c-.21-.3-.49-.55-.82-.74s-.73-.29-1.18-.29-.85.1-1.18.29-.61.44-.82.74c-.21.31-.37.65-.47 1.05-.1.39-.15.79-.15 1.18s.05.8.15 1.19.26.74.47 1.05.49.56.82.75.73.29 1.18.29z"/><path d="m147.47 165.92h1.52v-.77c0-.58.07-1.06.21-1.42s.33-.65.57-.84c.24-.2.51-.33.81-.39.3-.07.62-.1.96-.1.66 0 1.13.04 1.43.12v1.59c-.13-.04-.27-.06-.42-.08s-.32-.03-.53-.03c-.27 0-.51.07-.71.2s-.29.39-.29.77v.95h1.74v1.52h-1.74v7.73h-2.04v-7.73h-1.52v-1.52z"/><path d="m162.1 165.92h1.54v-2.77h2.04v2.77h1.84v1.52h-1.84v4.94c0 .21 0 .4.03.55.02.16.06.29.13.39.07.11.16.19.3.24.13.05.31.08.54.08h.43c.14 0 .29-.03.43-.06v1.57c-.23.02-.45.05-.66.07s-.44.04-.66.04c-.54 0-.97-.05-1.3-.15s-.58-.25-.77-.45c-.18-.2-.31-.45-.38-.74-.07-.3-.1-.64-.12-1.02v-5.46h-1.54v-1.52z"/><path d="m177.13 165.92h2.17l1.81 6.91h.04l1.74-6.91h2.06l1.66 6.91h.04l1.88-6.91h2.08l-2.9 9.25h-2.09l-1.72-6.87h-.04l-1.7 6.87h-2.15l-2.86-9.25z"/><path d="m208.64 173.11c0 .25.03.43.1.54s.19.16.38.16h.21c.08 0 .18-.01.29-.04v1.41c-.07.02-.16.05-.28.08-.11.03-.23.06-.35.08s-.24.04-.36.05-.22.02-.3.02c-.42 0-.76-.08-1.04-.25-.27-.17-.45-.46-.54-.88-.4.39-.9.68-1.49.86s-1.16.27-1.71.27c-.42 0-.82-.06-1.2-.17s-.72-.28-1.01-.5-.52-.5-.7-.84-.26-.74-.26-1.19c0-.57.11-1.04.31-1.4.21-.36.48-.64.82-.84s.72-.35 1.15-.44c.42-.09.85-.16 1.28-.21.37-.07.72-.12 1.06-.15.33-.03.63-.08.89-.15s.46-.18.61-.33.23-.37.23-.67c0-.26-.06-.48-.19-.64s-.28-.3-.47-.38c-.18-.09-.39-.15-.62-.18s-.44-.05-.64-.05c-.57 0-1.04.12-1.41.36s-.58.61-.63 1.11h-2.04c.04-.6.18-1.09.43-1.49.25-.39.57-.71.96-.95s.83-.4 1.32-.5c.49-.09.99-.14 1.5-.14.45 0 .9.05 1.34.14.44.1.84.25 1.19.47.35.21.64.49.85.83s.32.75.32 1.24v4.76zm-2.04-2.58c-.31.2-.69.32-1.15.37-.45.04-.91.1-1.36.19-.22.04-.42.09-.63.15-.2.07-.38.15-.54.27-.16.11-.28.26-.37.45s-.14.41-.14.67c0 .23.07.42.2.57s.29.28.48.37c.18.09.38.15.61.19.22.04.42.05.6.05.23 0 .47-.03.73-.09s.51-.16.74-.3.43-.32.58-.55c.15-.22.23-.49.23-.82v-1.52z"/><path d="m219.83 165.92h1.91v1.79h.04c.06-.25.18-.5.35-.73.17-.24.38-.46.63-.65.24-.2.52-.35.81-.47.3-.12.6-.18.91-.18.24 0 .4 0 .49.02.09.01.18.02.28.04v1.97c-.14-.02-.29-.05-.44-.06-.15-.02-.29-.03-.44-.03-.35 0-.67.07-.98.21-.3.14-.57.34-.8.61s-.41.6-.54.99-.2.85-.2 1.36v4.4h-2.04v-9.25z"/><path d="m236.4 171.08c0 .36.05.7.15 1.04.1.33.25.63.46.88.2.25.46.45.77.6s.68.22 1.11.22c.6 0 1.08-.13 1.44-.38.36-.26.64-.64.82-1.15h1.93c-.11.5-.29.95-.55 1.34s-.58.72-.95.99-.78.47-1.24.61-.94.21-1.44.21c-.73 0-1.37-.12-1.93-.36s-1.03-.57-1.42-1-.68-.94-.88-1.54-.29-1.25-.29-1.97c0-.66.1-1.28.31-1.87s.51-1.11.89-1.56c.39-.45.86-.8 1.4-1.06.55-.26 1.17-.39 1.86-.39s1.38.15 1.96.46 1.06.71 1.44 1.21.66 1.08.83 1.73.22 1.32.13 2.01h-6.8zm4.76-1.34c-.02-.32-.09-.63-.21-.93-.11-.3-.27-.56-.47-.78s-.43-.4-.72-.54c-.28-.14-.59-.21-.94-.21s-.68.06-.98.19c-.29.12-.54.3-.75.52s-.38.48-.5.78-.19.62-.21.97h4.76z"/><path d="m273.96 169.02c-.08-.57-.31-1-.69-1.3-.38-.29-.85-.44-1.42-.44-.26 0-.54.05-.84.13-.3.09-.57.26-.82.5-.25.25-.46.58-.63 1.02-.17.43-.25 1-.25 1.71 0 .38.05.76.13 1.15.09.38.23.72.43 1.02s.45.54.76.72.69.28 1.13.28c.6 0 1.09-.18 1.48-.55s.63-.89.72-1.56h2.04c-.19 1.21-.65 2.13-1.37 2.77s-1.68.96-2.87.96c-.73 0-1.37-.12-1.92-.37-.55-.24-1.02-.58-1.4-1s-.67-.93-.87-1.51-.29-1.22-.29-1.9.09-1.34.29-1.95c.19-.61.48-1.14.86-1.58.38-.45.86-.8 1.42-1.06.57-.26 1.23-.38 2-.38.54 0 1.05.07 1.53.21s.91.34 1.29.62.68.62.92 1.04.38.91.43 1.48h-2.04z"/><path d="m290.91 175.42c-.74 0-1.4-.12-1.98-.37-.58-.24-1.07-.58-1.47-1.01s-.71-.94-.91-1.54c-.21-.6-.31-1.25-.31-1.97s.11-1.35.31-1.95c.21-.6.51-1.11.91-1.54s.89-.77 1.47-1.01c.58-.25 1.24-.37 1.98-.37s1.4.12 1.98.37 1.07.58 1.47 1.01.7.94.91 1.54.31 1.25.31 1.95-.1 1.37-.31 1.97-.51 1.11-.91 1.54-.89.77-1.47 1.01-1.24.37-1.98.37zm0-1.61c.45 0 .85-.1 1.18-.29s.61-.44.82-.75.37-.66.48-1.05c.1-.39.15-.78.15-1.19s-.05-.79-.15-1.18-.26-.74-.48-1.05c-.22-.3-.49-.55-.82-.74s-.73-.29-1.18-.29-.85.1-1.18.29-.61.44-.82.74c-.21.31-.37.65-.48 1.05-.1.39-.15.79-.15 1.18s.05.8.15 1.19.26.74.48 1.05c.21.31.49.56.82.75s.73.29 1.18.29z"/><path d="m306.28 165.92h1.93v1.29h.05c.15-.23.32-.43.5-.63s.38-.35.6-.48.47-.24.76-.31c.29-.08.61-.12.98-.12.56 0 1.08.12 1.57.38.48.25.83.64 1.03 1.16.35-.48.74-.85 1.2-1.13.45-.28 1.02-.41 1.7-.41.98 0 1.74.24 2.28.72s.81 1.28.81 2.4v6.39h-2.04v-5.4c0-.37-.01-.71-.04-1.01-.02-.31-.09-.57-.21-.79-.11-.22-.28-.39-.51-.51s-.54-.18-.93-.18c-.69 0-1.19.22-1.5.64-.31.43-.46 1.04-.46 1.83v5.42h-2.04v-5.94c0-.64-.12-1.13-.35-1.46s-.66-.49-1.28-.49c-.26 0-.52.05-.76.16-.25.11-.46.26-.65.46-.18.2-.33.45-.45.75-.11.3-.17.64-.17 1.02v5.49h-2.04v-9.25z"/><path d="m330.9 165.92h1.93v1.25h.04c.29-.54.69-.92 1.2-1.15s1.07-.35 1.66-.35c.73 0 1.36.13 1.91.38.54.26.99.61 1.35 1.06s.63.97.8 1.57c.18.6.27 1.23.27 1.92 0 .62-.08 1.22-.24 1.81-.16.58-.41 1.1-.73 1.55-.33.45-.74.8-1.24 1.07s-1.09.4-1.77.4c-.3 0-.6-.03-.89-.08-.3-.05-.58-.14-.86-.26s-.53-.27-.76-.46c-.23-.18-.43-.4-.58-.65h-.04v4.62h-2.04v-12.67zm7.12 4.63c0-.42-.05-.82-.16-1.22-.11-.39-.27-.74-.48-1.05-.21-.3-.48-.55-.81-.73-.32-.18-.69-.28-1.11-.28-.86 0-1.51.3-1.94.89s-.65 1.39-.65 2.38c0 .46.06.9.17 1.3s.28.74.51 1.03.5.51.81.68c.32.17.68.25 1.1.25.47 0 .86-.1 1.18-.29s.59-.44.8-.74.36-.65.45-1.04.13-.78.13-1.19z"/><path d="m358.53 173.11c0 .25.03.43.1.54s.19.16.38.16h.22c.08 0 .18-.01.29-.04v1.41c-.07.02-.16.05-.28.08-.11.03-.23.06-.35.08s-.24.04-.36.05-.22.02-.3.02c-.42 0-.76-.08-1.04-.25-.27-.17-.45-.46-.54-.88-.4.39-.9.68-1.49.86s-1.16.27-1.71.27c-.42 0-.82-.06-1.2-.17s-.72-.28-1.01-.5-.52-.5-.7-.84-.26-.74-.26-1.19c0-.57.1-1.04.31-1.4s.48-.64.82-.84.72-.35 1.15-.44c.42-.09.85-.16 1.28-.21.37-.07.72-.12 1.06-.15.33-.03.63-.08.89-.15s.46-.18.61-.33.22-.37.22-.67c0-.26-.06-.48-.19-.64-.13-.17-.28-.3-.47-.38-.18-.09-.39-.15-.62-.18s-.44-.05-.65-.05c-.57 0-1.04.12-1.41.36s-.58.61-.63 1.11h-2.04c.04-.6.18-1.09.43-1.49.25-.39.57-.71.96-.95s.83-.4 1.32-.5c.49-.09.99-.14 1.5-.14.45 0 .9.05 1.34.14.44.1.84.25 1.19.47.35.21.64.49.85.83s.32.75.32 1.24v4.76zm-2.04-2.58c-.31.2-.69.32-1.14.37-.45.04-.91.1-1.36.19-.21.04-.42.09-.63.15-.2.07-.38.15-.54.27-.16.11-.28.26-.37.45-.09.18-.14.41-.14.67 0 .23.07.42.2.57s.29.28.48.37c.18.09.39.15.61.19s.42.05.6.05c.23 0 .47-.03.73-.09s.51-.16.74-.3.43-.32.58-.55c.15-.22.23-.49.23-.82v-1.52z"/><path d="m369.74 165.92h1.93v1.36l.04.04c.31-.51.72-.92 1.22-1.21s1.06-.44 1.66-.44c1.01 0 1.81.26 2.4.79.58.52.88 1.31.88 2.36v6.35h-2.04v-5.82c-.02-.73-.18-1.25-.46-1.58-.29-.33-.73-.49-1.34-.49-.35 0-.66.06-.93.19-.27.12-.51.3-.7.52s-.34.48-.45.78-.16.61-.16.95v5.46h-2.04v-9.25z"/><path d="m387.99 165.92h2.24l2.42 6.91h.04l2.34-6.91h2.13l-3.6 9.75c-.17.42-.33.82-.49 1.2s-.36.72-.59 1.01-.52.52-.87.7c-.35.17-.79.26-1.32.26-.48 0-.95-.04-1.41-.11v-1.72c.17.02.33.05.48.08s.32.05.48.05c.24 0 .44-.03.59-.09s.28-.15.38-.26.19-.25.26-.4.14-.33.2-.54l.23-.72-3.51-9.22z"/><path d="m370.29 131.86c.51-.44 1.01-.89 1.5-1.37 15.13-14.99 22.48-32.63 22.5-53.91-.02-21.28-7.37-38.98-22.5-54.11-.49-.48-.98-.92-1.48-1.37-.06-.05-.12-.1-.17-.15-10.07 8.39-21.42 14.01-33.78 16.76 4.34 2.09 8.31 4.95 11.85 8.53 8.35 8.44 12.57 18.65 12.55 30.34.03 11.57-4.2 21.68-12.55 30.07-3.53 3.55-7.49 6.38-11.82 8.46 12.35 2.77 23.69 8.43 33.77 16.88.05-.04.1-.08.15-.13"/><path d="m317.96 152.78h.36c2.31-.03 4.6-.14 6.81-.33.58-.05 1.15-.13 1.71-.21l.93-.12c1.46-.17 2.91-.35 4.33-.61.95-.17 1.9-.39 2.84-.6l.53-.12c1.19-.27 2.23-.51 3.23-.78 1.31-.36 2.59-.77 3.87-1.2.79-.27 1.58-.55 2.36-.84 1.44-.55 2.87-1.13 4.28-1.78.37-.17.73-.34 1.09-.51l.47-.23c1.86-.91 3.36-1.7 4.72-2.49l.51-.31c3.31-1.96 6.46-4.16 9.43-6.57-13.78-11.29-29.35-16.8-47.55-16.84l-3.25-.14c-.66-.05-1.31-.09-1.94-.16-.72-.08-1.45-.19-2.15-.3l-.26-.04c-.56-.09-1.12-.18-1.68-.3-.69-.15-1.35-.32-2.02-.49l-.34-.09c-.52-.14-1.05-.28-1.57-.44-.57-.18-1.13-.38-1.68-.59l-.83-.31c-.42-.15-.85-.31-1.26-.49-.49-.21-.97-.44-1.44-.68l-1.04-.51c-.38-.18-.75-.37-1.12-.58-.6-.33-1.19-.71-1.77-1.08l-.66-.41c-.34-.21-.68-.41-1.01-.64-.69-.48-1.36-1.01-2.01-1.53l-.32-.24c-.32-.24-.64-.48-.95-.74-.82-.68-1.6-1.43-2.38-2.19l-.69-.65c-6.68-6.73-10.7-14.71-11.98-23.76-.33-2.31-.48-4.37-.48-6.31-.02-11.72 4.14-21.93 12.36-30.33 1-1.02 2.05-2.01 3.12-2.91l.52-.41c.92-.75 1.83-1.47 2.77-2.12.2-.14.39-.25.58-.36l.31-.19c.83-.55 1.7-1.1 2.58-1.6.24-.13.47-.25.71-.36l.38-.19c.85-.43 1.69-.85 2.56-1.22.3-.13.61-.25.92-.36l.35-.13c.83-.32 1.66-.63 2.52-.9.33-.1.67-.19 1.01-.28l.45-.12c.82-.22 1.64-.44 2.48-.61.42-.09.84-.16 1.27-.23l.4-.06c.79-.13 1.59-.25 2.39-.34.64-.07 1.28-.11 1.92-.15l1.38-.15h1.87c18.22-.04 33.79-5.51 47.55-16.7-3.07-2.51-6.28-4.77-9.56-6.72l-.25-.15c-1.5-.88-3.14-1.75-5.02-2.67l-1.22-.58c-1.45-.67-2.95-1.3-4.58-1.92-.66-.25-1.32-.48-1.99-.71-1.4-.48-2.8-.93-4.22-1.33-.72-.2-1.45-.37-2.19-.54l-1.06-.25c-1.11-.26-2.21-.52-3.34-.72-.95-.17-1.93-.29-2.91-.42l-1.75-.23c-.76-.11-1.52-.21-2.3-.28-1.86-.16-3.77-.22-5.57-.25-.26 0-.52-.02-.78-.04-.27-.02-.54-.03-.82-.03h-.3c-1.98 0-4.21.1-6.71.31h-.31c-.8.08-1.43.17-2.09.27l-2.76.37c-.83.11-1.66.21-2.47.36-1.03.19-2.07.44-3.12.7l-1.8.43c-.6.14-1.18.28-1.72.43-1.5.42-2.99.94-4.51 1.49l-.64.22c-.42.15-.82.28-1.19.44-1.83.7-3.55 1.49-4.86 2.11l-1.25.61c-1.73.86-3.43 1.8-5.06 2.81l-.75.45c-1.56.97-3.15 2.05-4.75 3.21l-.93.7c-1.41 1.07-2.81 2.19-4.19 3.36-1.62 1.4-2.91 2.59-4.08 3.73-.09.1-.2.19-.31.29l-.21.18c-2.94 2.95-5.66 6.18-8.33 9.86-9.45 13-14.06 27.48-14.08 44.26.02 21.28 7.35 38.91 22.4 53.91 1.58 1.57 3.24 3.02 4.68 4.25 1.36 1.14 2.74 2.24 4.14 3.29l.39.28c1.61 1.2 3.26 2.33 5.09 3.48l.93.56c1.65.99 3.34 1.92 5.01 2.76l1.4.67c1.36.63 2.98 1.37 4.66 2.02.51.19 1.02.37 1.54.55l.48.16c1.46.52 2.9 1.01 4.32 1.41.69.2 1.39.36 2.09.52l.79.19c1.45.36 2.63.65 3.85.86 1.14.2 2.29.35 3.44.49l1.25.17c.77.11 1.51.22 2.23.29 2.48.23 5.03.34 7.59.35h.16z"/><path d="m251.09 21.13c-.06-.06-.13-.12-.2-.18-10.07 8.39-21.41 14.01-33.76 16.75 4.34 2.09 8.3 4.95 11.82 8.53 3.5 3.53 6.31 7.47 8.38 11.76 2.73-12.44 8.36-23.82 16.75-33.87-.04-.04-.08-.09-.12-.13-.45-.51-.91-1.03-1.41-1.53-.48-.48-.97-.91-1.46-1.35"/><path d="m254.06 128.87c-8.4-10.01-14.02-21.37-16.75-33.84-2.07 4.23-4.87 8.13-8.37 11.63-8.29 8.36-18.49 12.59-30.31 12.59s-22.08-4.24-30.36-12.61c-3.46-3.48-6.23-7.38-8.28-11.61-2.74 12.49-8.38 23.86-16.8 33.85.04.05.08.09.12.14.44.5.89 1 1.37 1.48 15.09 14.98 32.72 22.27 53.88 22.28 21.19-.01 38.85-7.3 53.98-22.29.5-.49.95-1 1.4-1.51.03-.04.07-.08.1-.11"/><path d="m118.13 142.3.75-.45c1.79-1.11 3.51-2.28 5.2-3.53l.26-.19c1.57-1.17 2.98-2.3 4.32-3.44s1.08-.95 1.08-.95c1.29-1.11 2.48-2.12 3.58-3.24 1.85-1.83 3.63-3.76 5.3-5.75.16-.19.3-.38.44-.57s.28-.38.43-.56c.87-1.07 1.71-2.16 2.51-3.26.48-.66.94-1.33 1.4-2 .78-1.16 1.54-2.33 2.25-3.52.37-.62.72-1.25 1.07-1.88.73-1.31 1.43-2.63 2.07-3.97.2-.42.39-.84.58-1.27l.13-.3c.75-1.68 1.37-3.18 1.88-4.59l.37-1.1c.64-1.85 1.15-3.54 1.58-5.15l.17-.71c.5-2 .9-3.89 1.22-5.78l.04-.25c.7-4.27 1.06-8.73 1.07-13.25v-3.28h.16c.04-.65.1-1.29.16-1.92.08-.73.19-1.44.3-2.15.1-.61.2-1.22.32-1.83.15-.75.34-1.49.54-2.22.17-.64.3-1.15.45-1.65.24-.77.51-1.52.79-2.27l.14-.37c.14-.37.27-.74.43-1.11.32-.77.69-1.52 1.06-2.28l.23-.46c.14-.3.28-.59.44-.88.41-.77.88-1.53 1.35-2.28l.27-.45c.15-.25.3-.5.46-.74.54-.8 1.13-1.58 1.73-2.35l.26-.35c.15-.21.3-.42.47-.62.88-1.08 1.82-2.14 2.79-3.14.95-.98 1.98-1.95 3.07-2.88.25-.22.52-.42.78-.62l.64-.49c.61-.49 1.22-.97 1.86-1.41.31-.22.64-.42.97-.63l.66-.42c.6-.38 1.2-.77 1.82-1.11.35-.19.7-.37 1.05-.54l.89-.44c.56-.28 1.12-.56 1.7-.81.38-.16.77-.31 1.16-.45l.46-.17c.75-.28 1.46-.56 2.19-.78.46-.14.95-.27 1.43-.4l.28-.07c.74-.2 1.49-.39 2.25-.55.55-.11 1.09-.2 1.64-.29.92-.15 1.69-.27 2.46-.35.63-.07 1.27-.11 1.92-.16l1.41-.14h1.87c18.19-.04 33.76-5.5 47.53-16.7-3.05-2.49-6.26-4.75-9.55-6.7l-.23-.14c-1.55-.91-3.2-1.78-5.07-2.69l-1.17-.56c-1.45-.67-2.99-1.32-4.68-1.96-.59-.22-1.19-.43-1.79-.64-1.66-.58-3.08-1.02-4.45-1.4-.62-.17-1.26-.32-1.88-.47l-.48-.11c-1.4-.34-2.8-.67-4.22-.93-.72-.13-1.46-.22-2.2-.32l-1.81-.24c-.96-.14-1.92-.27-2.91-.35-2.06-.18-4.23-.28-6.44-.3-.15 0-.3-.01-.44-.02l-.32-.02c-2.2 0-4.51.11-7.04.32l-.33.02c-.62.05-1.24.15-1.9.24l-2.79.39c-.31.05-.66.09-1 .13-.48.06-.96.12-1.42.2-.97.19-1.97.42-2.98.67l-1.38.33c-.64.15-1.28.3-1.91.47l-.38.09c-1.43.4-2.84.89-4.52 1.49l-.55.19c-.46.16-.9.31-1.31.47-1.4.54-2.9 1.2-4.74 2.07l-.77.37c-.19.09-.38.18-.54.26-1.67.83-3.32 1.75-5.11 2.83-.3.18-.51.3-.69.42-1.51.94-3.07 1.99-4.67 3.15l-1.2.91c-1.33 1.02-2.65 2.07-3.95 3.17-1.51 1.3-3.12 2.73-4.65 4.26-1.81 1.81-3.57 3.79-5.56 6.21-.77.94-1.51 1.89-2.23 2.85-.54.72-1.07 1.45-1.58 2.19-.77 1.11-1.5 2.23-2.19 3.36l-.15.24c-.3.49-.6.97-.88 1.46-.78 1.35-1.51 2.72-2.19 4.1l-.24.48c-.14.26-.27.53-.4.8-.68 1.44-1.34 3-2.02 4.76l-.39 1c-.61 1.64-1.16 3.36-1.7 5.26l-.2.71c-.49 1.82-.93 3.75-1.3 5.73l-.05.24c-.4 2.19-.69 4.26-.89 6.37l-.09.82c-.22 2.45-.33 4.92-.34 7.35l-.14 3.24c-.05.71-.09 1.31-.16 1.91-.08.73-.19 1.45-.31 2.17l-.04.26c-.09.53-.18 1.06-.28 1.58-.15.72-.34 1.42-.52 2.11l-.1.38c-.12.47-.25.93-.39 1.39-.22.69-.47 1.35-.72 2.02l-.16.43c-.16.44-.32.87-.51 1.3-.25.59-.54 1.16-.82 1.73l-.37.75c-.18.37-.36.74-.56 1.1-.34.62-.72 1.21-1.1 1.8l-.47.75c-.18.3-.36.6-.56.89-.5.73-1.05 1.43-1.6 2.14l-.38.5c-.16.22-.33.45-.51.66-.92 1.1-1.85 2.12-2.85 3.12-.97.98-1.99 1.91-3.12 2.86-.19.16-.39.31-.6.46l-.32.24c-.77.61-1.55 1.23-2.36 1.78-.28.19-.56.37-.85.54l-.46.29c-.72.46-1.41.9-2.12 1.29-.37.21-.75.39-1.13.57l-.79.39c-.55.27-1.11.55-1.67.79-.45.2-.92.37-1.38.54l-.79.29c-.52.19-1.04.39-1.58.55-.65.21-1.31.38-1.98.55-.63.17-1.27.33-1.92.47-.68.15-1.37.26-2.07.37-.65.11-1.32.21-2 .29-.68.07-1.37.13-2.06.18h-.02v.14l-1.27.07-1.95-.07c-18.21.01-33.78 5.52-47.55 16.84 3 2.44 6.17 4.66 9.44 6.59l.24.15c1.61.94 3.16 1.76 5.04 2.67l.42.2c.32.15.64.31.96.45 1.45.67 2.92 1.27 4.41 1.84.74.28 1.49.54 2.24.79 1.3.45 2.6.87 3.93 1.23 1.06.29 2.15.54 3.24.78l.6.14c.9.21 1.79.41 2.71.58 1.54.28 3.11.47 4.69.66l.93.12c.43.06.87.12 1.31.16 2.48.22 4.97.33 7.4.33 2.61 0 5.19-.12 7.66-.35.42-.05.92-.12 1.38-.19 2.17-.24 3.92-.48 5.55-.78.88-.15 1.77-.37 2.68-.59l1.47-.34c.87-.2 1.75-.39 2.6-.63 1.32-.37 2.65-.83 3.99-1.3l.85-.29c.51-.17 1.01-.35 1.51-.54 1.46-.56 2.98-1.22 4.79-2.09.38-.17.72-.33 1.06-.5l.22-.11c1.6-.79 3.26-1.7 5.05-2.79"/><path d="m118.13 58.05c2.73-12.49 8.35-23.88 16.71-33.91-.05-.05-.1-.11-.15-.16-.45-.5-.89-1.01-1.38-1.5-15.13-15.1-32.79-22.46-53.97-22.48-21.16.02-38.78 7.37-53.88 22.47-15.07 15.14-22.4 32.85-22.41 54.12.01 21.27 7.34 38.9 22.4 53.9.46.46.95.89 1.43 1.31.07.06.13.12.2.18 10.05-8.45 21.37-14.11 33.71-16.88-4.3-2.08-8.24-4.91-11.75-8.46-8.28-8.34-12.47-18.46-12.46-30.05-.02-11.7 4.14-21.91 12.34-30.33 8.19-8.42 18.39-12.69 30.32-12.69s22.16 4.27 30.48 12.68c3.52 3.55 6.33 7.51 8.4 11.81"/></g></svg>