<svg id="Modo_de_aislamiento" data-name="Modo de aislamiento" xmlns="http://www.w3.org/2000/svg" viewBox="0 0 578 182.18"><defs><style>.cls-1{fill:#012045;}.cls-2{fill:#3da1d6;}</style></defs><path class="cls-1" d="M269,32.44,238.09,91.33a1.86,1.86,0,0,1-3.25,0l-31-58.89a1.79,1.79,0,0,0-1.59-1h-15a1.35,1.35,0,0,0-1.19,2l48.74,91.22a1.79,1.79,0,0,0,3.16,0l48.74-91.22a1.35,1.35,0,0,0-1.18-2h-15a1.79,1.79,0,0,0-1.59,1" transform="translate(-9.94 -17.83)"/><path class="cls-1" d="M286.58,111l30.94-58.89a1.86,1.86,0,0,1,3.25,0l31,58.89a1.79,1.79,0,0,0,1.58,1h15a1.34,1.34,0,0,0,1.18-2L320.72,18.78a1.79,1.79,0,0,0-3.16,0L268.82,110a1.34,1.34,0,0,0,1.19,2h15a1.79,1.79,0,0,0,1.58-1" transform="translate(-9.94 -17.83)"/><path class="cls-1" d="M75.19,74.93C81.64,71.7,85.68,64.7,85.68,56.1c0-14.66-11.43-24.62-27.57-24.62H11.73a1.79,1.79,0,0,0-1.79,1.79v90.57a1.79,1.79,0,0,0,1.79,1.79H56.07c22.19,0,33.89-9.55,33.89-28.24,0-18.25-14.77-22.46-14.77-22.46M27.31,45.1h27.5c10.13,0,15.3,4.33,15.3,12.32S65,69.75,54.81,69.75H27.31A1.8,1.8,0,0,1,25.51,68V46.89a1.8,1.8,0,0,1,1.8-1.79M55.18,112H27.29a1.79,1.79,0,0,1-1.79-1.79v-25a1.79,1.79,0,0,1,1.79-1.79H55.18c13.29,0,19.23,3.77,19.23,14.29S68.6,112,55.18,112" transform="translate(-9.94 -17.83)"/><path class="cls-1" d="M170.31,74.93C176.77,71.7,180.8,64.7,180.8,56.1c0-14.66-11.43-24.62-27.57-24.62H106.86a1.79,1.79,0,0,0-1.79,1.79v90.57a1.79,1.79,0,0,0,1.79,1.79H151.2c22.19,0,33.89-9.55,33.89-28.24,0-18.25-14.78-22.46-14.78-22.46M122.43,45.1h27.5c10.14,0,15.3,4.33,15.3,12.32s-5.14,12.33-15.29,12.33H122.43A1.79,1.79,0,0,1,120.64,68V46.89a1.79,1.79,0,0,1,1.79-1.79M150.31,112H122.42a1.8,1.8,0,0,1-1.8-1.79v-25a1.8,1.8,0,0,1,1.8-1.79h27.89c13.29,0,19.22,3.77,19.22,14.29s-5.8,14.3-19.22,14.3" transform="translate(-9.94 -17.83)"/><path class="cls-2" d="M262.4,174.2c0-10.42,6-17.24,14-17.24s14,6.82,14,17.24-6,17.24-14,17.24S262.4,184.61,262.4,174.2Zm24.83,0c0-9-4.54-14.32-10.82-14.32s-10.82,5.34-10.82,14.32,4.53,14.37,10.82,14.37S287.23,183.18,287.23,174.2Z" transform="translate(-9.94 -17.83)"/><path class="cls-2" d="M296.2,200V167.19H299l.31,3.33a10.4,10.4,0,0,1,7.9-3.82c5.44,0,9.75,4,9.75,12.26s-4.36,12.25-9.83,12.25a10.67,10.67,0,0,1-7.82-3.63v12Zm17.64-21c0-6.51-3.23-9.65-7.18-9.65-2.92,0-5,1.48-7.37,3.86v11.58c2.43,2.47,4.63,3.82,7.46,3.82C310.7,188.61,313.84,185.78,313.84,179Z" transform="translate(-9.94 -17.83)"/><path class="cls-2" d="M321,179c0-8.35,5.39-12.26,10.37-12.26,5.48,0,9.66,4.22,9.66,12.3v.58H324.11c.05,5.8,3.37,9.12,7.77,9.12a9.89,9.89,0,0,0,7.59-3.5l1.52,2a11.55,11.55,0,0,1-9.16,4.08C325.86,191.3,321,187,321,179Zm17-1.8c-.31-4.49-2.47-7.85-6.69-7.85-3.41,0-6.65,2.55-7.18,7.85Z" transform="translate(-9.94 -17.83)"/><path class="cls-2" d="M346.42,190.81V167.19h2.78l.32,3.73c2.33-2.33,5.34-4.22,8.93-4.22,4.76,0,7.14,2.56,7.14,7v17.15h-3.1V174.29c0-3.33-1.44-5-4.76-5-3,0-5.57,1.57-8.21,4.13v17.37Z" transform="translate(-9.94 -17.83)"/><path class="cls-2" d="M382.86,190.81V157.59h3.19v33.22Z" transform="translate(-9.94 -17.83)"/><path class="cls-2" d="M393.9,190.81V167.19h2.79l.31,3.73c2.33-2.33,5.34-4.22,8.93-4.22,4.76,0,7.14,2.56,7.14,7v17.15H410V174.29c0-3.33-1.43-5-4.75-5-3,0-5.57,1.57-8.22,4.13v17.37Z" transform="translate(-9.94 -17.83)"/><path class="cls-2" d="M419.53,190.81V167.19h2.78l.32,3.73c2.33-2.33,5.34-4.22,8.93-4.22,4.76,0,7.14,2.56,7.14,7v17.15h-3.1V174.29c0-3.33-1.43-5-4.76-5-3,0-5.56,1.57-8.21,4.13v17.37Z" transform="translate(-9.94 -17.83)"/><path class="cls-2" d="M443.81,179c0-7.9,4.89-12.3,10.73-12.3s10.69,4.4,10.69,12.3-4.9,12.3-10.69,12.3S443.81,186.86,443.81,179Zm18.32,0c0-5.21-2.6-9.65-7.59-9.65-4.8,0-7.63,4.09-7.63,9.65,0,5.25,2.56,9.65,7.63,9.65C459.3,188.65,462.13,184.57,462.13,179Z" transform="translate(-9.94 -17.83)"/><path class="cls-2" d="M476.89,190.94l-8.62-23.47,3.1-.59,7.14,20.25h.09l6.95-19.94h3.15L480,190.94Z" transform="translate(-9.94 -17.83)"/><path class="cls-2" d="M491.57,185.24c0-4.67,4-8,16-9.87v-1.22c0-3.23-1.75-4.84-4.84-4.84-3.69,0-6.25,1.48-8.76,3.72l-1.75-1.93A14.77,14.77,0,0,1,503,166.7c5.25,0,7.68,2.83,7.68,7.54v16.57h-2.74l-.32-3.37a13.68,13.68,0,0,1-9.33,3.77C494,191.21,491.57,188.92,491.57,185.24Zm16-.31v-7.37c-10.41,1.8-13,4.27-13,7.32,0,2.47,1.62,3.77,4.31,3.77A12.33,12.33,0,0,0,507.59,184.93Z" transform="translate(-9.94 -17.83)"/><path class="cls-2" d="M518.68,185.2V169.8h-4.09v-2.61h4.09v-8.3l3.1-.45v8.75h6.14v2.61h-6.14v14.95c0,2.51.94,3.77,3.67,3.77a8.88,8.88,0,0,0,2.34-.32l.36,2.65a20.24,20.24,0,0,1-3.23.27C520.7,191.12,518.68,189.51,518.68,185.2Z" transform="translate(-9.94 -17.83)"/><path class="cls-2" d="M532.91,160a1.89,1.89,0,0,1,3.77,0,1.89,1.89,0,1,1-3.77,0Zm.36,30.8V167.19h3.09v23.62Z" transform="translate(-9.94 -17.83)"/><path class="cls-2" d="M542,179c0-7.9,4.89-12.3,10.73-12.3s10.68,4.4,10.68,12.3-4.89,12.3-10.68,12.3S542,186.86,542,179Zm18.31,0c0-5.21-2.6-9.65-7.58-9.65-4.8,0-7.63,4.09-7.63,9.65,0,5.25,2.56,9.65,7.63,9.65C557.46,188.65,560.28,184.57,560.28,179Z" transform="translate(-9.94 -17.83)"/><path class="cls-2" d="M568.77,190.81V167.19h2.78l.31,3.73c2.34-2.33,5.35-4.22,8.94-4.22,4.76,0,7.14,2.56,7.14,7v17.15h-3.1V174.29c0-3.33-1.44-5-4.76-5-3,0-5.57,1.57-8.22,4.13v17.37Z" transform="translate(-9.94 -17.83)"/></svg>